<svg width="11" height="7" viewBox="0 0 11 7" fill="none" xmlns="http://www.w3.org/2000/svg">
<path d="M10.4931 1.04714C10.3057 0.860889 10.0523 0.756348 9.78811 0.756348C9.52393 0.756348 9.27048 0.860889 9.08311 1.04714L5.49311 4.58714L1.95311 1.04714C1.76575 0.860889 1.5123 0.756348 1.24811 0.756348C0.983927 0.756348 0.730475 0.860889 0.543113 1.04714C0.449384 1.1401 0.37499 1.2507 0.324221 1.37256C0.273452 1.49442 0.247314 1.62513 0.247314 1.75714C0.247314 1.88915 0.273452 2.01986 0.324221 2.14172C0.37499 2.26358 0.449384 2.37418 0.543113 2.46714L4.78311 6.70714C4.87608 6.80087 4.98668 6.87526 5.10854 6.92603C5.23039 6.9768 5.3611 7.00294 5.49311 7.00294C5.62512 7.00294 5.75583 6.9768 5.87769 6.92603C5.99955 6.87526 6.11015 6.80087 6.20311 6.70714L10.4931 2.46714C10.5868 2.37418 10.6612 2.26358 10.712 2.14172C10.7628 2.01986 10.7889 1.88915 10.7889 1.75714C10.7889 1.62513 10.7628 1.49442 10.712 1.37256C10.6612 1.2507 10.5868 1.1401 10.4931 1.04714Z" fill="white"/>
</svg>
