<svg width="21" height="17" viewBox="0 0 21 17" fill="none" xmlns="http://www.w3.org/2000/svg">
<path fill-rule="evenodd" clip-rule="evenodd" d="M6.61558 16.7384C14.5034 16.7384 18.8179 10.3039 18.8179 4.72463C18.8179 4.54146 18.8179 4.35968 18.8053 4.17857C19.6446 3.58174 20.3689 2.84071 20.9448 1.99281C20.163 2.33444 19.3321 2.55849 18.4824 2.65727C19.377 2.12938 20.047 1.30005 20.3679 0.321467C19.5254 0.813331 18.6047 1.16047 17.6442 1.34673C16.02 -0.3532 13.3036 -0.435562 11.5759 1.16352C10.4628 2.19458 9.98937 3.73188 10.3353 5.19822C6.88733 5.02741 3.67449 3.42424 1.49637 0.786891C0.358189 2.71627 0.940345 5.18358 2.82478 6.42251C2.14228 6.40295 1.47442 6.22204 0.877635 5.89482V5.94841C0.87868 7.95807 2.31787 9.68849 4.31831 10.0867C3.68704 10.2565 3.0244 10.2811 2.38267 10.1587C2.94392 11.8792 4.55452 13.0576 6.38878 13.0916C4.87016 14.2667 2.99409 14.9048 1.06263 14.9027C0.721906 14.9017 0.381182 14.8821 0.0415039 14.842C2.00328 16.0809 4.28487 16.7384 6.61558 16.7353" fill="white"/>
</svg>
