<svg width="217" height="30" viewBox="0 0 217 30" fill="none" xmlns="http://www.w3.org/2000/svg">
<g clip-path="url(#clip0_5_561)">
<path fill-rule="evenodd" clip-rule="evenodd" d="M90.7917 21.4762C84.6058 21.4762 80.107 17.225 80.107 11.3796C80.107 5.53418 84.6058 1.28296 90.8721 1.28296C94.2462 1.28296 97.1383 2.49759 98.9861 4.77503L99.1467 5.00277L95.8529 8.03935L95.6119 7.81161C94.4069 6.36923 92.8002 5.686 91.0328 5.686C87.5783 5.686 85.1682 8.03935 85.1682 11.4555C85.1682 14.8717 87.5783 17.225 91.0328 17.225C92.8805 17.225 94.4069 16.5418 95.6119 15.0994L95.8529 14.8717L99.1467 17.9082L98.9861 18.136C97.1383 20.4134 94.2462 21.6281 90.7917 21.6281V21.4762ZM43.3927 21.1726H33.19V1.58667H42.9107C47.6506 1.58667 50.4623 3.56045 50.4623 6.82477C50.4623 8.57081 49.659 10.0132 48.2932 10.9242C50.3017 11.7592 51.4264 13.5053 51.4264 15.7068C51.4264 19.1988 48.6146 21.1726 43.4731 21.1726H43.3927ZM38.1708 17.301H43.0714C45.9635 17.301 46.2848 16.1623 46.2848 15.2513C46.2848 13.8848 45.2405 13.2016 43.0714 13.2016H38.1708V17.301ZM38.1708 9.40587H42.268C44.2764 9.40587 45.3208 8.72264 45.3208 7.43209C45.3208 6.9766 45.3208 5.53423 42.268 5.53423H38.1708V9.40587ZM59.2995 21.1726H54.2383V1.58667H59.2995V21.1726ZM68.1366 21.1726H73.1175V5.76197H79.3034V1.58667H61.9507V5.76197H68.1366V21.1726ZM99.8697 11.3796C99.8697 17.225 104.449 21.4762 110.715 21.4762C116.981 21.4762 121.56 17.225 121.56 11.3796C121.56 5.53418 116.981 1.28296 110.715 1.28296C104.449 1.28296 99.8697 5.53418 99.8697 11.3796ZM105.011 11.3796C105.011 8.03935 107.421 5.61009 110.715 5.61009C114.009 5.61009 116.419 8.03935 116.419 11.3796C116.419 14.7198 114.009 17.1491 110.715 17.1491C107.421 17.1491 105.011 14.7198 105.011 11.3796ZM129.031 21.1726H123.97V1.58667H129.031V21.1726ZM146.304 21.1726H150.401V1.58667H145.42V12.5184L136.342 1.58667H132.245V21.1726H137.226V10.2409L146.304 21.1726ZM158.274 21.1726H153.213V1.58667H158.274V21.1726ZM160.925 19.1988C162.773 20.5653 165.906 21.4762 168.959 21.4762V21.5521C175.145 21.5521 177.394 18.2119 177.394 15.4031C177.394 11.1891 173.447 10.2571 170.248 9.50171L170.164 9.48173C168.075 9.02624 166.227 8.57076 166.227 7.35612C166.227 6.14149 167.432 5.45826 169.601 5.45826C171.289 5.45826 173.056 5.98966 174.743 6.90064L175.064 7.05247L176.671 3.18082L176.43 3.029C174.663 1.89028 172.172 1.28296 169.601 1.28296C164.46 1.28296 161.166 3.71223 161.246 7.43204C161.246 11.7219 165.195 12.6542 168.394 13.4097L168.477 13.4293C170.566 13.8848 172.413 14.3403 172.413 15.5549C172.413 17.0732 170.325 17.3009 169.039 17.3009C166.87 17.3009 164.46 16.6177 162.853 15.4031L162.532 15.1753L160.764 19.047L160.925 19.1988ZM189.766 21.1726H184.785V5.76197H178.599V1.58667H195.952V5.76197H189.766V21.1726ZM198.201 5.30628C198.201 5.68585 198.924 5.98951 198.924 5.98951C199.326 5.98951 199.647 5.68585 199.647 5.30628C199.647 4.92671 199.326 4.62305 198.924 4.62305C198.522 4.62305 198.201 4.92671 198.201 5.30628ZM202.941 5.98971C201.495 5.98971 200.531 5.07874 200.531 3.78819C200.531 2.49765 201.575 1.58667 202.941 1.58667C203.745 1.58667 204.387 1.89033 204.789 2.34582L203.986 3.10496C203.986 3.10496 203.343 2.57356 203.022 2.57356C202.298 2.57356 201.736 3.10496 201.736 3.78819C201.736 4.47142 202.298 5.00283 203.022 5.00283C203.423 5.00283 203.745 4.851 203.986 4.54734L204.789 5.15465C204.387 5.68606 203.745 5.98971 202.941 5.98971ZM205.19 3.78819C205.19 5.07874 206.235 5.98971 207.681 5.98971C209.127 5.98971 210.171 5.07874 210.171 3.78819C210.171 2.49765 209.127 1.58667 207.681 1.58667C206.235 1.58667 205.19 2.49765 205.19 3.78819ZM206.476 3.78819C206.476 3.10496 206.958 2.57356 207.681 2.57356C208.484 2.57356 208.966 3.10496 208.966 3.78819C208.966 4.47142 208.404 5.00283 207.681 5.00283C206.958 5.00283 206.476 4.47142 206.476 3.78819ZM210.975 5.762V1.73853V1.6626H211.939L213.465 4.09186L214.992 1.6626H215.956V5.91381H214.911V3.71229L213.787 5.45833H213.224L212.1 3.78821V5.91381H210.975V5.762ZM32.628 27.0938C32.628 27.0679 32.6283 27.0422 32.629 27.0166C32.6698 28.4209 33.8595 29.4472 35.3594 29.4472C36.1628 29.4472 36.8055 29.2194 37.2875 28.7639L36.9661 28.4603C36.5645 28.9158 36.0021 29.0676 35.4397 29.0676C34.2347 29.0676 33.2707 28.2325 33.2707 27.0179C33.2707 25.8033 34.1544 24.9682 35.4397 24.9682C36.0021 24.9682 36.5645 25.1959 36.9661 25.5755L37.2875 25.2719C36.8055 24.8164 36.0824 24.5886 35.3594 24.5886C33.7815 24.5886 32.6684 25.6137 32.629 27.0166C32.6283 26.9918 32.628 26.967 32.628 26.942V27.0938ZM40.7419 27.9289L41.947 29.5231V29.4472H42.5093L41.2239 27.777C42.0273 27.5493 42.429 27.0179 42.429 26.2587C42.429 25.1959 41.6256 24.5886 40.3402 24.5886H38.4121V29.4472H38.9745V27.9289H40.3402H40.7419ZM40.3402 25.12C41.3846 25.12 41.947 25.5755 41.947 26.3347C41.947 27.0938 41.3846 27.5493 40.3402 27.5493H38.9745V25.12H40.3402ZM45.4817 27.853V29.5231H44.9194V27.853L42.8306 24.6646H43.393L45.1604 27.3975L46.9278 24.6646H47.4901L45.4014 27.853H45.4817ZM50.3016 28.0048C51.587 28.0048 52.3904 27.3975 52.3904 26.3347C52.3904 25.2719 51.587 24.6646 50.3016 24.6646H48.3736V29.5231H48.9359V28.0048H50.3016ZM50.2213 25.12C51.2657 25.12 51.828 25.5755 51.828 26.3347C51.828 27.0938 51.2657 27.5493 50.2213 27.5493H48.8556V25.12H50.2213ZM54.3187 25.12H52.5513V24.6646H56.7288V25.12H54.8811V29.5231H54.3187V25.12ZM59.8618 24.5886C58.2551 24.5886 57.1304 25.6514 57.1304 27.0938C57.1304 28.5362 58.2551 29.599 59.8618 29.599C61.4686 29.599 62.5933 28.5362 62.5933 27.0938C62.5933 25.6514 61.4686 24.5886 59.8618 24.5886ZM59.8618 25.0441C61.1472 25.0441 62.0309 25.9551 62.0309 27.0938C62.0309 28.3084 61.0669 29.1435 59.8618 29.1435C58.6568 29.1435 57.6928 28.3084 57.6928 27.0938C57.6928 25.8792 58.5765 25.0441 59.8618 25.0441ZM63.3965 27.0938C63.3965 27.0679 63.3969 27.0422 63.3976 27.0166C63.4384 28.4209 64.628 29.4472 66.128 29.4472C66.9313 29.4472 67.574 29.2194 68.056 28.7639L67.7347 28.4603C67.333 28.9158 66.7707 29.0676 66.2083 29.0676C65.0033 29.0676 64.0392 28.2325 64.0392 27.0179C64.0392 25.8033 64.9229 24.9682 66.2083 24.9682C66.7707 24.9682 67.333 25.1959 67.7347 25.5755L68.056 25.2719C67.574 24.8164 66.851 24.5886 66.128 24.5886C64.55 24.5886 63.437 25.6137 63.3976 27.0166C63.3969 26.9918 63.3965 26.967 63.3965 26.942V27.0938ZM69.1006 24.6646V27.4734H69.2613C69.2613 28.8399 70.0647 29.599 71.35 29.599C72.6354 29.599 73.4388 28.8399 73.4388 27.4734V24.6646H72.8764V27.4734C72.8764 28.6121 72.3141 29.1435 71.2697 29.1435C70.2253 29.1435 69.663 28.6121 69.663 27.4734V24.6646H69.1006ZM78.5803 29.5231L77.3752 27.9289H76.9735H75.6078V29.4472H75.0454V24.5886H76.9735C78.2589 24.5886 79.0623 25.1959 79.0623 26.2587C79.0623 27.0179 78.6606 27.5493 77.8572 27.777L79.1426 29.4472H78.5803V29.5231ZM78.5803 26.3347C78.5803 25.5755 78.0179 25.12 76.9735 25.12H75.6078V27.5493H76.9735C78.0179 27.5493 78.5803 27.0938 78.5803 26.3347ZM82.758 27.9289L83.9631 29.5231V29.4472H84.5254L83.24 27.777C84.0434 27.5493 84.4451 27.0179 84.4451 26.2587C84.4451 25.1959 83.6417 24.5886 82.3563 24.5886H80.4283V29.4472H80.9906V27.9289H82.3563H82.758ZM82.3563 25.12C83.4007 25.12 83.9631 25.5755 83.9631 26.3347C83.9631 27.0938 83.4007 27.5493 82.3563 27.5493H80.9906V25.12H82.3563ZM89.4257 29.0676V29.1435H86.3729V27.3216H89.0241V26.8661H86.3729V25.12H89.3454V24.6646H85.8106V29.5231H89.4257V29.1435H89.5061L89.4257 29.0676ZM95.0492 29.5231V24.6646H94.4868V28.6121L91.193 24.6646H90.711V29.5231H91.2733V25.5755L94.5671 29.5231H95.0492ZM96.335 27.0938C96.335 27.0679 96.3354 27.0422 96.3361 27.0166C96.3769 28.4209 97.5665 29.4472 99.0664 29.4472C99.8698 29.4472 100.512 29.2194 100.994 28.7639L100.673 28.4603C100.271 28.9158 99.7091 29.0676 99.1468 29.0676C97.9417 29.0676 96.9777 28.2325 96.9777 27.0179C96.9777 25.8033 97.8614 24.9682 99.1468 24.9682C99.7091 24.9682 100.271 25.1959 100.673 25.5755L100.994 25.2719C100.512 24.8164 99.7895 24.5886 99.0664 24.5886C97.4885 24.5886 96.3755 25.6137 96.3361 27.0166L96.3356 26.9967L96.3352 26.9737L96.335 26.942V27.0938ZM103.806 29.5231V27.853H103.725L105.814 24.6646H105.252L103.484 27.3975L101.717 24.6646H101.155L103.243 27.853V29.5231H103.806ZM113.526 24.6646V29.5231H113.044L109.751 25.5755V29.5231H109.188V24.6646H109.67L112.964 28.6121V24.6646H113.526ZM118.909 29.1435V29.0676L118.99 29.1435H118.909ZM115.857 29.1435H118.909V29.5231H115.294V24.6646H118.829V25.12H115.857V26.8661H118.508V27.3216H115.857V29.1435ZM127.264 24.6646L125.497 29.5231H124.935L123.408 25.3478L121.882 29.5231H121.319L119.552 24.6646H120.114L121.641 28.8399L123.167 24.6646H123.649L125.176 28.9158L126.702 24.6646H127.264ZM127.987 28.5362L127.746 28.9158V28.9917C128.148 29.3712 128.871 29.599 129.674 29.599C130.96 29.599 131.603 28.9158 131.603 28.2325C131.603 27.3061 130.698 27.1063 129.849 26.9188C129.097 26.7528 128.389 26.5965 128.389 25.9551C128.389 25.4237 128.791 25.0441 129.755 25.0441C130.237 25.0441 130.719 25.12 131.201 25.4237L131.362 25.0441C130.96 24.7405 130.317 24.5886 129.755 24.5886C128.389 24.5886 127.827 25.2719 127.827 25.9551C127.827 26.9315 128.75 27.1448 129.606 27.3428C130.348 27.5143 131.04 27.6743 131.04 28.3084C131.04 28.7639 130.639 29.1435 129.674 29.1435C129.032 29.1435 127.987 28.5362 127.987 28.5362ZM139.073 29.599L138.35 28.9158C137.949 29.3713 137.306 29.599 136.663 29.599C135.619 29.599 134.896 29.0676 134.896 28.3844C134.896 27.777 135.217 27.3975 136.181 26.8661C135.699 26.4106 135.539 26.1069 135.539 25.7274C135.539 25.12 136.021 24.6646 136.824 24.6646C137.547 24.6646 138.029 25.0441 138.029 25.6514C138.029 26.1069 137.708 26.4865 136.904 26.942L138.35 28.3084C138.35 28.3084 138.591 27.7011 138.672 27.3975L139.073 27.5493C138.993 28.0048 138.832 28.3844 138.591 28.688L139.314 29.3713L139.073 29.599ZM138.029 28.6121L136.503 27.0938C135.699 27.5493 135.458 27.853 135.458 28.3084C135.458 28.8399 135.94 29.2194 136.744 29.2194C137.306 29.2194 137.788 29.0676 138.109 28.688L138.029 28.6121ZM136.021 25.6514C136.021 25.6514 136.101 26.1069 136.583 26.5624C137.306 26.1828 137.547 25.8792 137.547 25.5755C137.547 25.2719 137.306 24.9682 136.824 24.9682C136.342 24.9682 136.021 25.2719 136.021 25.6514ZM141.966 25.12H143.733V29.5231H144.295V25.12H146.143V24.6646H141.966V25.12ZM150.722 29.0676V29.1435H147.67V27.3216H150.321V26.8661H147.67V25.12H150.642V24.6646H147.107V29.5231H150.722V29.1435H150.803L150.722 29.0676ZM151.527 27.0166C151.526 27.0422 151.526 27.0679 151.526 27.0938V26.942C151.526 26.967 151.526 26.9918 151.527 27.0166ZM151.527 27.0166C151.566 25.6137 152.679 24.5886 154.257 24.5886C154.98 24.5886 155.703 24.8164 156.185 25.2719L155.864 25.5755C155.462 25.1959 154.9 24.9682 154.337 24.9682C153.052 24.9682 152.168 25.8033 152.168 27.0179C152.168 28.2325 153.132 29.0676 154.337 29.0676C154.9 29.0676 155.462 28.9158 155.864 28.4603L156.185 28.7639C155.703 29.2194 155.061 29.4472 154.257 29.4472C152.757 29.4472 151.568 28.4208 151.527 27.0166ZM161.648 24.6646V29.5231H161.086V27.2456H157.872V29.5231H157.31V24.6646H157.872V26.8661H161.086V24.6646H161.648ZM167.673 29.5231V24.6646H167.111V28.6121L163.817 24.6646H163.335V29.5231H163.898V25.5755L167.191 29.5231H167.673ZM168.959 27.0938C168.959 25.6514 170.084 24.5886 171.69 24.5886C173.297 24.5886 174.422 25.6514 174.422 27.0938C174.422 28.5362 173.297 29.599 171.69 29.599C170.084 29.599 168.959 28.5362 168.959 27.0938ZM173.859 27.0938C173.859 25.9551 172.976 25.0441 171.69 25.0441C170.405 25.0441 169.521 25.8792 169.521 27.0938C169.521 28.3084 170.485 29.1435 171.69 29.1435C172.895 29.1435 173.859 28.3084 173.859 27.0938ZM176.189 24.6646H175.627V29.5231H179.081V29.0676H176.189V24.6646ZM179.483 27.0938C179.483 25.6514 180.608 24.5886 182.215 24.5886C183.821 24.5886 184.946 25.6514 184.946 27.0938C184.946 28.5362 183.821 29.599 182.215 29.599C180.608 29.599 179.483 28.5362 179.483 27.0938ZM184.384 27.0938C184.384 25.9551 183.5 25.0441 182.215 25.0441C180.929 25.0441 180.046 25.8792 180.046 27.0938C180.046 28.3084 181.01 29.1435 182.215 29.1435C183.42 29.1435 184.384 28.3084 184.384 27.0938ZM190.328 27.0938H189.766V28.688C189.364 28.9917 188.882 29.0676 188.4 29.0676C187.195 29.0676 186.231 28.2325 186.231 27.0179C186.231 25.8033 187.195 24.9682 188.481 24.9682C189.043 24.9682 189.605 25.1959 190.007 25.5755L190.328 25.2719C189.846 24.8164 189.204 24.5886 188.4 24.5886C186.793 24.5886 185.669 25.6514 185.669 27.0938C185.669 28.5362 186.793 29.599 188.4 29.599C189.123 29.599 189.846 29.3712 190.328 28.9917V27.0938ZM193.622 29.5231H193.06V27.853L190.971 24.6646H191.533L193.301 27.3975L195.068 24.6646H195.631L193.542 27.853H193.622V29.5231ZM0.493164 23.4501L7.40211 29.751H30.2981V1.58667H0.493164V23.4501ZM22.8268 13.733C23.1481 11.6833 21.461 10.6205 19.2116 9.86136H19.292L20.015 7.05252L18.2476 6.59703L17.5246 9.32995C17.3237 9.292 17.143 9.25404 16.9622 9.21608C16.7814 9.17812 16.6007 9.14017 16.3998 9.10221H16.0785L16.8015 6.36929L15.0341 5.9138L14.3111 8.72264H14.0701C13.7487 8.64672 13.1864 8.49489 13.1864 8.49489L10.6959 7.88758L10.2139 9.70953L11.4993 10.0132C12.2223 10.165 12.3027 11.0001 12.3027 11.0001L11.4993 14.1885L10.2942 18.5915C10.2139 18.7434 9.97288 19.1229 9.49086 18.9711L8.20547 18.6674L7.32177 20.5653L9.65153 21.0967C9.82374 21.0967 9.97288 21.1403 10.1113 21.1808C10.2312 21.2158 10.343 21.2485 10.4549 21.2485C10.6156 21.3244 10.937 21.4004 10.937 21.4004L10.2139 24.2092L11.9813 24.6647L12.7044 21.8558C13.1864 22.0077 13.6684 22.1595 14.1504 22.2354L13.4274 24.9683L15.1948 25.4238L15.9178 22.615C18.9706 23.1464 21.22 22.9187 22.1841 20.3376C22.9874 18.212 22.1841 16.9973 20.5773 16.2382C21.7021 15.9345 22.5858 15.2513 22.8268 13.733ZM18.7296 19.1229C18.2476 21.0208 15.0341 20.2616 13.5881 19.8821H13.5077C13.4274 19.8062 13.1864 19.8062 13.1864 19.8062L14.1504 16.0863C14.3111 16.1623 14.4718 16.1623 14.6324 16.1623C14.7247 16.1852 14.8225 16.209 14.9248 16.2338C16.515 16.6202 19.1825 17.2685 18.7296 19.1229ZM14.9827 14.4994L14.9538 14.4921V14.4162H14.6324L15.5161 11.076C15.6768 11.1519 15.7571 11.1519 15.9178 11.1519C17.2032 11.3796 19.774 11.911 19.292 13.733C18.8138 15.4652 16.2007 14.8065 14.9827 14.4994Z" fill="white"/>
</g>
<defs>
<clipPath id="clip0_5_561">
<rect width="216" height="29" fill="white" transform="translate(0.493164 0.877197)"/>
</clipPath>
</defs>
</svg>
