<svg width="207" height="51" viewBox="0 0 207 51" fill="none" xmlns="http://www.w3.org/2000/svg">
<g clip-path="url(#clip0_5_566)">
<path fill-rule="evenodd" clip-rule="evenodd" d="M13.2574 0.377197H37.2587L49.3017 12.6536H25.3004L25.2156 12.7406V12.6536L13.2584 0.378213L25.2156 12.7406H1.21436L13.2574 0.377197ZM25.2155 37.3806H49.2168L37.2586 49.6569L13.1726 49.657L1.21436 37.3804V12.7406L25.1308 12.7407L13.2149 24.9736L13.2574 25.017V25.1042L25.2155 37.3806ZM37.2587 25.0172L37.1738 25.017L25.2156 12.7406L49.2168 12.7407L37.2587 25.0172ZM37.2587 25.0172H37.3435L49.3017 37.2935H25.3004L37.2587 25.0172ZM64.5679 29.0222C64.2286 29.3704 63.7198 29.5446 63.1261 29.5446L63.0413 29.6316C62.1932 29.6316 61.5147 29.2834 61.1754 28.5868C60.8362 27.8032 60.6666 26.7584 60.6666 25.4524V25.1042C60.5818 24.0594 60.7514 23.0146 61.1754 22.0568C61.5147 21.2732 62.1084 20.925 63.0413 20.925C63.7198 20.925 64.1438 21.1862 64.483 21.6215C64.8223 22.1439 64.9919 22.8404 64.9919 23.4499L69.402 23.3628C69.4869 21.7086 68.8932 19.9672 67.7058 18.8354C66.5185 17.7035 64.9919 17.1811 63.0413 17.1811C60.7514 17.1811 58.9704 17.8776 57.6982 19.3578C56.4261 20.8379 55.8324 22.7534 55.8324 25.1042V25.4524C55.6628 27.542 56.4261 29.5446 57.6982 31.1988C58.9704 32.5919 60.7514 33.3755 63.1261 33.3755C64.8223 33.3755 66.4337 32.8531 67.7058 31.7212C68.8932 30.6764 69.5717 29.1092 69.4869 27.455H65.0767C65.0767 28.1515 64.9071 28.6739 64.5679 29.0222ZM78.3071 21.6215H80.0881L80.597 17.1811C80.0881 17.007 79.6641 17.007 79.24 17.007C78.5615 17.007 77.8831 17.2682 77.3742 17.7035C76.7805 18.2259 76.3565 18.8354 76.102 19.619L75.9324 17.2682H71.4375V33.0272H76.1869V22.6663C76.3565 22.318 76.6109 22.0568 76.9501 21.8827C77.2894 21.7086 77.7983 21.6215 78.3071 21.6215ZM89.2476 26.149L89.1628 26.0619L88.9932 25.9748L86.6185 17.1811H81.5299L86.8729 33.1143L86.5337 34.1591C86.3641 34.5944 86.1096 34.9427 85.7704 35.2039C85.4312 35.4651 84.9223 35.5521 84.159 35.5521L83.9046 35.4651H83.6502L83.0565 38.9477C83.6502 39.1219 84.0742 39.2089 84.3286 39.2089C84.5831 39.296 84.9223 39.296 85.3464 39.296C86.9578 39.296 88.1451 38.9477 88.9084 38.1641C89.6717 37.3805 90.2653 36.4228 90.7742 35.2909L96.8806 17.2682H91.7919L89.2476 26.149ZM106.973 21.9698C107.397 22.7534 107.566 23.8852 107.566 25.1912L107.482 25.2783V25.5395C107.566 26.5843 107.397 27.542 106.973 28.4998C106.634 29.1963 106.04 29.5446 105.192 29.5446C104.768 29.5446 104.259 29.4575 103.835 29.2834C103.496 29.1092 102.987 28.4998 102.987 28.4998V21.8827C103.156 21.5344 103.496 21.1862 103.835 21.012C104.174 20.8379 104.683 20.7508 105.192 20.7508C105.955 20.7508 106.634 21.1862 106.973 21.9698ZM110.789 31.1118C111.807 29.7187 112.316 27.8032 112.316 25.4524V25.2783C112.401 23.1887 111.892 21.0991 110.789 19.3578C109.772 17.8776 108.245 17.094 106.379 17.094C104.937 17.007 103.58 17.7906 102.817 19.0966L102.647 17.3552H98.1527V39.0348H102.902V31.6342C103.75 32.679 105.022 33.2884 106.379 33.2884C108.16 33.2884 109.772 32.5048 110.789 31.1118ZM120.118 17.2682V13.3502L120.034 13.4372H115.199V17.3552H113.079V20.7508H115.199V27.9774C115.199 29.8928 115.623 31.1988 116.472 32.0695C117.235 32.9402 118.422 33.3755 120.034 33.3755C121.051 33.3755 122.069 33.2884 123.002 33.0272L122.663 29.3704C122.239 29.4575 121.815 29.4575 121.306 29.4575C121.051 29.4575 120.712 29.3704 120.458 29.1092C120.203 28.848 120.118 28.4127 120.118 27.8903V20.6638H122.747V17.2682H120.118ZM129.278 28.4127C128.854 27.6291 128.684 26.5843 128.684 25.2783V24.93C128.684 23.7111 128.854 22.6663 129.278 21.8827C129.702 21.0991 130.38 20.7508 131.313 20.7508C132.246 20.7508 132.925 21.0991 133.349 21.8827C133.773 22.8404 133.942 23.8852 133.942 24.93V25.2783C133.942 26.5843 133.773 27.6291 133.349 28.4127C132.925 29.1963 132.246 29.5446 131.313 29.5446C130.38 29.5446 129.702 29.1963 129.278 28.4127ZM125.885 19.2707C124.528 20.8379 123.85 22.9275 123.935 25.0171H123.85V25.3654C123.765 27.455 124.444 29.5446 125.801 31.1118C127.158 32.5048 129.023 33.2884 131.313 33.2884C133.603 33.2884 135.469 32.5919 136.741 31.1118C138.013 29.6316 138.692 27.7162 138.692 25.3654V25.0171C138.777 22.9275 138.098 20.8379 136.741 19.2707C135.469 17.7906 133.603 17.007 131.313 17.007C129.023 17.007 127.158 17.7906 125.885 19.2707ZM145.314 17.3552L145.307 17.2682L145.477 17.3552H145.314ZM145.314 17.3552H140.982V33.1143H145.731V21.7956C146.24 21.1862 147.003 20.8379 147.766 20.8379C148.53 20.8379 149.039 21.012 149.378 21.3603C149.717 21.7086 149.887 22.4051 149.887 23.2758V33.0272H154.636V23.2758C154.636 21.0991 154.212 19.5319 153.364 18.4871C152.516 17.5294 151.329 17.007 149.802 17.007C148.954 16.9199 148.106 17.1811 147.342 17.6164C146.579 18.0518 145.985 18.6612 145.477 19.4448L145.314 17.3552ZM162.354 21.5344C162.693 21.012 163.202 20.7508 163.88 20.7508C164.644 20.7508 165.068 20.925 165.407 21.3603C165.746 21.7956 165.916 22.4051 165.916 23.1887V23.537H161.76C161.845 22.6663 162.015 22.0568 162.354 21.5344ZM158.792 31.1118C160.149 32.5919 161.93 33.2884 164.22 33.2884V33.3755C165.407 33.3755 166.51 33.2014 167.612 32.8531C168.545 32.5048 169.478 32.0695 170.241 31.5471L169.139 28.5868C167.782 29.2834 166.34 29.5446 164.898 29.5446C164.05 29.5446 163.287 29.2834 162.778 28.761C162.184 28.2386 161.93 27.542 161.76 26.6714H170.58V24.0594C170.665 22.231 170.072 20.3155 168.799 18.9224C167.612 17.6164 166.001 17.007 163.88 17.007C161.591 17.007 159.894 17.7906 158.622 19.2707C157.35 20.7508 156.756 22.6663 156.756 25.1042V25.6266C156.672 27.6291 157.435 29.6316 158.792 31.1118ZM185.846 26.4102H185.761H185.677L183.048 17.2682H179.994L177.45 26.4102H177.365L175.669 17.2682H171.259L174.906 33.0272H178.977L181.521 24.6688H181.606L184.15 33.0272H188.221L191.868 17.2682H187.458L185.846 26.4102ZM201.027 27.542C201.367 27.8903 201.621 28.5868 201.621 28.5868V28.6739C201.621 29.1963 201.451 29.5446 201.112 29.7187C200.773 29.9799 200.264 30.067 199.67 30.067C198.907 30.067 198.313 29.8928 197.889 29.5446C197.465 29.2834 197.211 28.761 197.211 27.9774L192.886 28.0644C192.886 29.3704 193.479 30.6764 194.667 31.7212C195.854 32.8531 197.465 33.3755 199.586 33.3755C201.282 33.4626 202.978 32.9402 204.42 31.9824C205.692 31.1118 206.286 29.8928 206.286 28.4998C206.37 27.1938 205.861 26.0619 204.929 25.2783C203.656 24.4076 202.299 23.8852 200.773 23.624C199.925 23.537 199.161 23.2758 198.398 22.8404C198.059 22.5792 197.805 22.231 197.805 21.7956C197.805 21.3603 197.974 21.012 198.313 20.7508C198.653 20.4026 199.077 20.3155 199.586 20.3155C200.264 20.3155 200.688 20.4896 201.027 20.8379C201.367 21.1862 201.536 21.6215 201.536 22.231L206.201 22.1439C206.201 20.6638 205.522 19.2707 204.42 18.4871C203.148 17.5294 201.536 17.094 199.501 17.094C197.635 17.094 196.024 17.5294 194.921 18.4871C193.818 19.2707 193.225 20.5767 193.225 21.9698C193.225 23.1887 193.649 24.3206 194.582 25.1042C195.769 25.9748 197.211 26.4972 198.653 26.7584C199.501 26.8455 200.264 27.1067 201.027 27.542Z" fill="white"/>
</g>
<defs>
<clipPath id="clip0_5_566">
<rect width="206" height="50" fill="white" transform="translate(0.493164 0.377197)"/>
</clipPath>
</defs>
</svg>
