<svg width="200" height="49" viewBox="0 0 200 49" fill="none" xmlns="http://www.w3.org/2000/svg">
<g clip-path="url(#clip0_5_570)">
<path fill-rule="evenodd" clip-rule="evenodd" d="M0.642437 34.0507C0.687045 34.6659 0.731652 35.2811 0.731652 35.8523V35.9402H1.44537C1.6684 35.6326 1.84683 35.347 2.02526 35.0614C2.20369 34.7758 2.38212 34.4902 2.60516 34.1826C5.74603 29.754 8.97193 25.2836 12.1655 20.8581L12.1661 20.8572C13.5986 18.872 15.0246 16.8959 16.4335 14.9367C16.7011 14.673 17.3256 14.2336 17.3256 14.2336H25.5334C19.3776 22.7581 13.311 31.1946 7.33354 39.5433C7.33354 39.6312 7.51197 39.8069 7.51197 39.8069C9.15071 40.6932 10.8011 41.6022 12.463 42.5177L12.4642 42.5184C15.4161 44.1444 18.4046 45.7905 21.4295 47.3647C21.8756 47.6283 22.7677 47.6283 23.2138 47.3647C27.03 45.1629 30.8795 42.994 34.7419 40.8177L34.7431 40.8171L34.7441 40.8165C37.2016 39.4318 39.6646 38.0441 42.1274 36.6432C42.8411 36.2038 43.2871 35.5008 43.2871 34.622C43.3149 33.912 43.3512 33.1851 43.3881 32.4465C43.47 30.808 43.5548 29.1119 43.5548 27.4157C43.5249 26.0035 43.505 24.5815 43.4851 23.1561C43.4456 20.3243 43.4058 17.4788 43.2871 14.673C43.2871 13.7942 43.1979 13.0912 43.0195 12.0366C42.6626 12.476 42.5734 12.5639 42.395 12.7397C38.9157 17.6829 35.2858 22.7744 31.6559 27.8659C30.4459 29.5632 29.2359 31.2605 28.0314 32.9522C27.5853 33.5674 27.1393 33.831 26.4255 33.831H19.8237C19.6898 33.831 19.5337 33.7871 19.3776 33.7432C19.2215 33.6992 19.0653 33.6553 18.9315 33.6553C24.0291 26.3856 29.1915 19.1798 34.3081 12.038L34.3089 12.0369L34.315 12.0284L34.3337 12.0023L34.3694 11.9525L34.3761 11.9431C35.2365 10.7421 36.0956 9.54298 36.9529 8.34563C36.844 8.23834 36.7794 8.14561 36.7291 8.07335C36.6557 7.96804 36.6126 7.90622 36.5068 7.90622C34.9902 7.086 33.4735 6.24625 31.9569 5.4065C28.9236 3.727 25.8903 2.04751 22.857 0.524239C22.2325 0.436358 21.4295 0.436358 20.805 0.7C18.1668 2.13121 15.5286 3.61084 12.8904 5.09046C9.37278 7.06327 5.8551 9.03614 2.33751 10.8942C0.999297 11.6851 0.553223 12.6518 0.553223 13.97V32.2492C0.553223 32.8204 0.59783 33.4356 0.642437 34.0507ZM163.37 28.9097C163.459 26.2732 162.478 24.4277 159.98 23.3732C160.028 23.3496 160.069 23.3324 160.107 23.3164C160.212 23.2727 160.295 23.2382 160.426 23.1095C162.389 22.055 163.102 20.2095 162.656 18.1882C162.21 16.2548 160.693 15.1124 158.82 14.8487C157.456 14.5688 155.983 14.5385 154.493 14.508C153.645 14.4906 152.792 14.4731 151.95 14.4093H147.4C147.222 14.7609 147.222 15.0245 147.222 15.0245V32.5128C147.222 33.3916 147.668 33.3916 148.293 33.3916H156.054C157.214 33.3916 158.195 33.3916 159.266 33.1279C161.496 32.5128 163.191 30.7552 163.37 28.9097ZM153.639 29.6524C153.025 29.6327 152.403 29.6127 151.772 29.6127C151.772 28.3238 151.776 27.0329 151.95 25.6581C153.735 25.6581 155.608 25.746 157.393 25.9217C158.374 26.0096 158.998 26.7126 158.998 27.7672C158.82 28.7339 158.106 29.437 157.214 29.6127C156.031 29.7293 154.848 29.6912 153.639 29.6524ZM153.378 22.0061C152.843 21.9866 152.307 21.9671 151.772 21.9671H151.683V18.1882C152.221 18.1882 152.77 18.1684 153.315 18.1488C154.396 18.1099 155.462 18.0714 156.411 18.1882C157.303 18.364 158.195 18.8034 158.195 19.9458C158.195 21.0883 157.749 21.7913 156.59 21.9671C155.519 22.0843 154.448 22.0452 153.378 22.0061ZM110.644 14.5854C111.447 17.1341 112.228 19.6608 113.009 22.1875V22.189L113.01 22.1901C113.79 24.7157 114.57 27.2412 115.373 29.7887H115.64C116.443 27.2402 117.224 24.7136 118.005 22.1871C118.785 19.6605 119.566 17.1339 120.369 14.5854H123.134C122.516 16.3319 121.936 18.0784 121.358 19.8162C120.686 21.8385 120.018 23.849 119.298 25.8341C119.036 26.6401 118.751 27.4343 118.463 28.234C117.966 29.6141 117.463 31.0107 117.068 32.513C116.838 33.6441 116.018 33.6106 115.226 33.5783C115.094 33.5729 114.964 33.5676 114.838 33.5676C114.124 33.5676 113.678 33.304 113.499 32.513C112.161 27.8554 110.734 23.3734 109.128 18.3642C108.503 19.9461 108.057 21.4401 107.7 22.6704C107.165 24.3401 106.652 25.9659 106.139 27.5917C105.626 29.2175 105.113 30.8433 104.578 32.513C104.399 33.2161 103.953 33.5676 103.24 33.5676C103.018 33.513 102.762 33.5347 102.506 33.5563C101.939 33.6044 101.372 33.6523 101.188 32.8646C100.162 29.8327 99.1805 26.8228 98.1992 23.8129C97.2178 20.8029 96.2364 17.793 95.2105 14.7611C95.315 14.7611 95.3583 14.7008 95.3942 14.6509C95.4195 14.6155 95.4412 14.5854 95.4781 14.5854C97.9761 14.4096 98.1546 14.4096 98.8683 16.7824C99.0279 17.2855 99.1875 17.7874 99.3468 18.2884C100.523 21.9872 101.683 25.6342 102.704 29.3493C102.704 29.4332 102.745 29.497 102.797 29.579C102.854 29.6689 102.925 29.7807 102.972 29.9645C103.712 27.4857 104.479 25.0606 105.244 22.6447C105.862 20.6927 106.478 18.7459 107.076 16.7824C107.237 16.3468 107.355 15.9924 107.451 15.7048C107.666 15.0628 107.77 14.7532 107.984 14.6135C108.184 14.4834 108.48 14.5009 109.051 14.5348C109.421 14.5567 109.906 14.5854 110.555 14.5854H110.644ZM197.985 28.7342C197.584 28.295 197.182 27.8552 196.736 27.416C192.454 30.316 189.778 30.316 187.458 27.5917C185.674 25.4826 185.852 21.9674 187.726 19.9461C188.618 18.8915 189.778 18.3643 191.116 18.1885C193.346 17.837 195.131 18.8915 196.736 20.4734C196.939 20.2333 197.143 19.9979 197.343 19.7648L197.347 19.7613L197.348 19.7595L197.349 19.7586C198.029 18.9702 198.685 18.2099 199.234 17.3976C195.487 13.1793 188.439 13.0914 184.514 16.9582C180.678 20.9128 180.678 27.5917 185.406 31.4585C189.51 34.798 195.755 34.2707 199.234 30.0524C198.788 29.6131 198.387 29.1739 197.986 28.7346L197.985 28.7342ZM61.0411 19.331V33.3919H58.3647V14.6733C60.1489 14.2339 61.3087 14.6733 62.2901 16.0794C64.1555 18.8061 66.1833 21.5327 68.2913 24.3672C69.3085 25.735 70.3447 27.1284 71.39 28.5585V14.4976H74.0664V33.1283C72.1929 33.7435 71.7469 33.3919 70.6763 31.9858C70.1996 31.3419 69.725 30.702 69.2525 30.065L69.2335 30.0395L69.2113 30.0095L69.2041 29.9998C66.5983 26.4868 64.0557 23.0591 61.5764 19.5068C61.4913 19.5068 61.4265 19.4668 61.3432 19.4154C61.2519 19.3591 61.1385 19.2891 60.9519 19.2431L61.0411 19.331ZM82.0064 25.1308H91.1063L91.0171 25.0429C91.0171 24.1641 91.0171 23.3731 91.1955 22.3186H82.0956V16.6942H92.3553V14.4093H79.33V33.2158H92.5338V30.7552H82.0064V25.1308ZM180.856 14.4095L181.034 14.6732C181.213 17.0753 180.083 18.2763 177.644 18.2763H175.414V33.216H171.042V18.2763H166.492C165.422 18.2763 165.154 18.0127 165.154 16.9581C165.154 15.2005 166.046 14.3217 167.831 14.3217H180.856V14.4095ZM124.933 29.627C124.784 29.8988 124.628 30.1846 124.472 30.4918H124.294C126.97 32.9525 130.093 33.9192 133.572 33.6555C135.713 33.3919 137.676 32.3373 138.39 30.3161C139.46 27.416 138.836 24.9554 135.178 23.5493C134.286 23.1977 133.416 22.8682 132.546 22.5387C131.677 22.2091 130.807 21.8795 129.914 21.528C128.844 21.0886 128.309 20.2977 128.576 19.2431C128.844 18.5401 129.558 17.9249 130.182 17.4855C130.628 17.2218 131.342 17.0461 131.966 17.2218C133.103 17.3898 134.24 17.7006 135.4 18.0176C136.061 18.1981 136.729 18.3806 137.408 18.5401C137.612 18.1891 137.787 17.8095 137.982 17.3851C138.129 17.0655 138.287 16.7205 138.479 16.343C135.713 14.7612 132.769 14.0581 129.558 14.9369C127.238 15.4642 125.811 17.0461 125.632 18.8037C125.364 21.8795 126.524 23.2856 129.022 24.3402C129.626 24.55 130.244 24.7459 130.87 24.9446C131.817 25.245 132.784 25.5517 133.751 25.922C134.732 26.3614 135.624 26.8887 135.803 28.2069C135.981 29.613 134.732 30.7555 132.859 30.9312C130.004 31.107 127.684 30.0524 125.632 28.2069C125.458 28.6642 125.209 29.1214 124.933 29.627Z" fill="white"/>
</g>
<defs>
<clipPath id="clip0_5_570">
<rect width="199" height="48" fill="white" transform="translate(0.493164 0.377197)"/>
</clipPath>
</defs>
</svg>
