<svg width="178" height="50" viewBox="0 0 178 50" fill="none" xmlns="http://www.w3.org/2000/svg">
<g clip-path="url(#clip0_5_580)">
<path fill-rule="evenodd" clip-rule="evenodd" d="M34.9584 2.48538C35.1202 2.15399 35.6865 1.73975 35.6865 1.73975H45.2333C54.3751 1.73975 54.8266 1.73975 55.0154 1.96246C55.0252 1.97403 55.0343 1.9862 55.0439 1.99901C55.0604 2.02111 55.0783 2.04511 55.1037 2.07114C55.1361 2.13742 55.1944 2.2037 55.2526 2.26997C55.34 2.36939 55.4274 2.46881 55.4274 2.56823L55.5892 2.81677V6.04783V9.52744C55.5083 9.77598 55.2656 10.1902 55.0228 10.3559L55.0086 10.3669C54.7004 10.6045 54.7004 10.6045 49.4404 10.6045H44.5052V40.5125H49.5213L54.5374 40.5954H54.7801C55.1037 40.7611 55.4274 41.0925 55.5083 41.4238V44.9863C55.5083 47.4734 55.455 48.1062 55.4349 48.3449C55.4302 48.4004 55.4274 48.4347 55.4274 48.4659C55.3465 48.7144 54.7801 49.2944 54.7801 49.2944H45.0715L35.6056 49.2115H35.4438C35.2011 49.0458 34.7966 48.6316 34.7966 48.3831V25.4342V2.73392L34.9584 2.48538ZM74.1169 2.48538C74.2787 2.15399 74.8451 1.73975 74.8451 1.73975H84.3918C93.5164 1.73975 93.9732 1.73975 94.2295 1.96643C94.243 1.97838 94.256 1.99095 94.2696 2.00419C94.2909 2.02485 94.3138 2.04713 94.3432 2.07114C94.4241 2.23684 94.6668 2.56823 94.6668 2.56823L94.8286 2.81677V25.5171C94.8286 47.7203 94.8286 48.2174 94.7477 48.4659C94.6668 48.7144 94.3432 49.0458 94.1004 49.2115L93.9386 49.2944H84.4727L75.0069 49.2115H74.7642C74.5214 49.0458 74.1169 48.6316 74.036 48.3831V44.8206C74.036 44.1946 74.0337 43.6807 74.0318 43.2569C74.0248 41.6595 74.0234 41.3435 74.1713 41.1319C74.2078 41.0798 74.2533 41.034 74.31 40.9769L74.3351 40.9517L74.3596 40.9268C74.5214 40.8439 74.7642 40.5125 74.7642 40.5125H74.926H80.023H85.12V10.5216H80.1848C75.0807 10.5216 74.9305 10.4436 74.6302 10.2875L74.6023 10.2731C74.3596 10.1074 74.1169 9.85883 74.036 9.61029L74.0282 9.58606L74.0252 9.57685L74.0189 9.55634C73.9551 9.34259 73.9551 9.10978 73.9551 6.04783V2.73392L74.1169 2.48538ZM1.54492 11.433L0.493164 11.7644V21.9547V32.145L1.22131 32.4763C2.35397 33.0563 3.56755 33.3877 4.78112 33.5534C5.29536 33.6119 6.17275 33.5877 6.87187 33.5685C7.16269 33.5605 7.42265 33.5534 7.6128 33.5534C10.04 33.0563 11.9008 31.7307 12.8717 29.7424C14.0043 27.4226 13.8425 24.1087 12.548 21.8718C11.9008 20.712 11.0108 19.8835 9.79723 19.3035C8.66456 18.7236 7.6937 18.5579 6.31832 18.6408C4.94293 18.6408 4.05298 18.9722 3.00121 19.6349L2.59669 19.8835V15.4925V11.1016C2.59669 11.1016 2.11126 11.2673 1.54492 11.433ZM7.93642 20.712C8.98818 21.0434 9.95904 21.7061 10.5254 22.6175C11.1727 23.6116 11.4154 24.6887 11.4154 26.1799C11.4154 27.9197 11.0108 29.1624 10.1209 30.0738C9.55452 30.6537 8.98818 30.9851 8.09823 31.3165C6.72284 31.8136 4.4575 31.6479 3.00121 31.0679L2.67759 30.9022V26.4285V21.9547L3.00121 21.7061C3.56755 21.209 4.3766 20.8777 5.18565 20.712C5.83289 20.5463 5.9947 20.5463 6.80375 20.6291C7.37008 20.6291 7.6128 20.6291 7.93642 20.712ZM151.866 20.3807C151.866 20.215 152.19 19.8008 154.05 17.6467L154.212 17.8124C155.911 15.8241 156.477 15.2441 156.477 15.2441H156.558V18.8066H161.089V20.6292H156.558V25.0202V29.7425C156.72 30.571 157.044 30.7367 158.096 30.7367C158.824 30.7367 159.633 30.571 160.442 30.2396C160.765 30.0739 161.089 29.991 161.089 29.991V30.9024V31.9794H160.846C159.633 32.4765 158.581 32.725 157.448 32.725C156.397 32.725 155.668 32.4765 155.183 31.9794C154.778 31.5651 154.617 31.2337 154.455 30.6538C154.212 29.991 154.212 29.5768 154.212 24.9373V20.5464H151.866V20.3807ZM48.7126 17.6465C48.7126 17.6465 48.5508 17.7294 48.4699 17.8122L48.308 17.9779V19.8834C48.308 21.7061 48.308 21.7889 48.389 21.8718L48.413 21.8966C48.4457 21.9305 48.4736 21.9593 48.5047 21.9837C48.6792 22.1203 48.9606 22.1203 50.8161 22.1203H52.8387V28.4996H50.7352H48.6317L48.4699 28.6653L48.308 28.831V30.7365C48.308 32.5591 48.308 32.642 48.389 32.7248C48.4035 32.7397 48.4155 32.7537 48.4267 32.7669C48.4358 32.7776 48.4445 32.7878 48.4537 32.7975C48.6218 32.9734 48.974 32.9734 55.7513 32.9734C62.422 32.9734 62.9304 32.9734 63.0638 32.7497C63.0748 32.7313 63.0832 32.7113 63.0924 32.6897C63.0964 32.6802 63.1005 32.6705 63.105 32.6604C63.1077 32.6544 63.1106 32.6482 63.1137 32.642C63.1946 32.4763 63.1946 32.3106 63.1137 30.6536C63.1137 28.9967 63.1137 28.831 63.0328 28.7481C62.871 28.4996 62.79 28.4996 60.6056 28.4996H58.583V22.1203H60.6056C62.435 22.1203 62.787 22.1203 62.94 21.9458C62.9765 21.9042 63.0016 21.8527 63.0327 21.789C63.1136 21.6233 63.1137 21.4575 63.0328 19.8006C63.0328 18.1436 63.0328 17.9779 62.9519 17.8951C62.9484 17.8898 62.9452 17.8846 62.9422 17.8795L62.938 17.8723L62.9306 17.8593C62.8105 17.6465 62.8105 17.6465 55.5895 17.6465H48.7126ZM66.3499 17.7293C66.3499 17.7293 66.3174 17.6876 66.2729 17.8869L66.3499 17.7293ZM66.2714 17.8938L66.269 17.895L66.2729 17.8869L66.2714 17.8938ZM66.2714 17.8938C66.4316 17.8121 66.521 17.8121 68.3725 17.8121C70.476 17.8121 70.5569 17.8121 70.7997 18.0607C70.8806 18.1435 72.0132 19.7176 73.3077 21.5403L75.7349 24.8542V21.4574C75.7349 18.1435 75.7349 18.0607 75.8158 17.9778C76.0585 17.7293 76.0585 17.7293 78.3238 17.7293C80.3464 17.7293 80.4274 17.7293 80.5892 17.8121C80.6109 17.8233 80.6313 17.8311 80.6502 17.8383C80.669 17.8455 80.6864 17.8522 80.7026 17.8611C80.9128 17.977 80.9128 18.4741 80.9128 25.4341V25.4361C80.9128 32.5591 80.9128 32.7248 80.8319 32.8904L80.807 32.9247C80.7668 32.9803 80.734 33.0256 80.6936 33.0623C80.5182 33.2218 80.1977 33.2218 78.4856 33.2218L76.5439 33.0561H76.3012C76.1394 32.9733 75.573 32.3105 73.6313 29.7422L71.2042 26.594V29.6594C71.1271 32.8958 71.1235 32.8981 70.9133 33.0345C70.9029 33.0412 70.892 33.0483 70.8806 33.0561C70.7997 33.139 70.6378 33.139 68.6152 33.139C66.269 33.139 66.269 33.139 66.1072 32.8076C66.0263 32.6419 66.0263 32.4762 66.0263 25.3533V25.3513C66.0263 19.8918 66.1756 18.3324 66.2714 17.8938ZM105.912 18.1437C104.941 18.2265 103.889 18.475 102.999 18.9721C101.624 19.6349 100.41 20.8776 99.8442 22.2032C99.2779 23.4459 99.0352 24.9372 99.197 26.5113C99.5206 29.9909 101.948 32.4763 105.507 32.9734C106.155 33.0563 107.53 33.0563 108.258 32.9734C108.732 32.9734 109.076 32.8846 109.512 32.772C109.671 32.7308 109.843 32.6864 110.038 32.642L110.523 32.4763V31.3993V30.3223C110.523 30.3223 110.281 30.3223 110.038 30.488C109.472 30.7365 108.582 30.9022 107.854 30.9851C107.045 31.0679 105.912 30.9851 105.265 30.9022C104.698 30.7365 104.213 30.5708 103.727 30.2394C103.161 29.908 102.918 29.6595 102.514 29.1624C101.705 28.1682 101.3 27.0084 101.3 25.6C101.3 23.0317 102.757 21.0433 105.184 20.3805C105.411 20.3142 105.547 20.2744 105.685 20.2505C105.893 20.2149 106.107 20.2149 106.64 20.2149C107.368 20.2149 107.692 20.2149 108.096 20.2977C108.242 20.3308 108.391 20.364 108.54 20.3971C109.135 20.5297 109.731 20.6622 110.119 20.7948L110.443 20.9605V19.8835V18.8064L110.038 18.6407C109.553 18.475 108.663 18.3094 108.096 18.2265C107.894 18.2265 107.644 18.2184 107.378 18.2098C106.796 18.1909 106.139 18.1696 105.75 18.2265L105.912 18.1437ZM139.893 19.9665C140.863 18.9723 142.239 18.3095 143.614 18.1438C144.019 17.9781 144.99 18.061 145.475 18.1438C147.983 18.7237 149.844 20.7949 150.329 23.6118C150.329 23.8712 150.337 24.1874 150.346 24.5224V24.5241C150.364 25.2586 150.385 26.0825 150.329 26.5943C150.168 27.9198 149.682 29.1626 148.954 30.1567C148.549 30.7367 147.902 31.3995 147.417 31.7308C146.689 32.3108 145.799 32.725 144.909 32.8907C143.938 33.1393 142.401 33.0564 141.187 32.725C140.863 32.6422 139.974 32.2279 139.731 32.0622C139.65 31.9794 139.569 31.9794 139.569 31.9794V35.1276V38.2758H137.385V18.6409H139.569V20.2978L139.893 19.9665ZM146.689 21.2092C146.284 20.7949 145.475 20.3807 144.909 20.2978L144.828 20.215C144.681 20.215 144.489 20.2074 144.28 20.1991C143.799 20.18 143.225 20.1572 142.886 20.215C142.469 20.2863 142.171 20.4188 141.735 20.6127C141.664 20.6442 141.59 20.6773 141.511 20.7121C140.863 20.9606 140.378 21.3749 139.893 21.872L139.569 22.2033V29.9082H139.731C140.135 30.2396 140.783 30.571 141.43 30.7367C142.239 31.0681 142.563 31.0681 143.452 31.0681C144.181 31.0681 144.342 31.0681 144.666 30.9852C145.475 30.7367 146.122 30.4053 146.689 29.8253C147.417 29.0797 147.902 28.1684 148.145 26.8428C148.226 26.2629 148.226 24.6888 148.145 24.1088C147.902 22.8661 147.417 21.872 146.689 21.2092ZM169.342 18.1437C169.342 18.1437 168.614 18.2265 168.371 18.3094C164.811 19.1378 162.627 22.1204 162.87 26.0142C162.951 28.0025 163.598 29.4938 164.73 30.7365C165.701 31.7307 166.753 32.3106 168.128 32.7249C168.938 32.9734 169.504 32.9734 170.475 32.9734C171.688 32.9734 172.578 32.7249 173.63 32.2278C175.086 31.4822 176.057 30.5708 176.785 29.0796C177.109 28.4168 177.271 27.754 177.433 27.0084C177.513 26.3456 177.513 24.8543 177.433 24.1087C177.19 22.5346 176.543 21.209 175.491 20.2149C174.277 18.9721 172.74 18.3094 170.879 18.1437H169.342ZM171.284 20.132C172.659 20.3805 173.711 21.209 174.439 22.286C175.086 23.2802 175.329 24.1915 175.329 25.6C175.329 26.5113 175.329 26.8427 175.086 27.5883C174.358 29.908 172.336 31.3165 169.908 31.1508C167.4 30.9851 165.54 29.3281 165.135 26.7598C165.054 26.097 165.054 24.9372 165.135 24.3572C165.216 23.8602 165.459 23.1974 165.62 22.7831C166.349 21.3747 167.643 20.3805 169.18 20.132C169.747 20.0492 170.798 20.0492 171.284 20.132ZM115.944 21.6232C116.915 19.4692 118.129 18.6407 120.637 18.2265L120.718 18.3093H120.96H121.122V20.7948H120.718C119.181 20.8776 118.21 21.2918 117.32 22.2032C116.672 22.8659 116.349 23.4459 116.025 24.5229C115.702 25.4342 115.702 25.5999 115.702 29.2452V32.5591H114.65H113.598V18.7236H114.65H115.702V20.4634V22.2032L115.944 21.6232ZM22.1756 18.558H21.6902C20.4766 18.7237 19.3439 19.2208 18.454 19.8836C17.9685 20.215 17.2404 21.0434 16.9168 21.5405C16.4313 22.369 16.1077 23.1146 15.865 24.1917C15.7841 24.7716 15.7841 24.8544 15.7841 25.9315C15.7841 27.1742 15.7841 27.5056 16.0268 28.3341C16.755 31.2337 18.9394 33.1392 22.0947 33.5535H24.6837C25.7354 33.4706 27.1917 33.0564 28.2435 32.6421H28.4862V31.3994V30.3224L27.9199 30.6538C26.4636 31.3994 24.7646 31.7308 23.0656 31.648C22.3374 31.648 21.9329 31.5651 21.2856 31.3166C19.7484 30.7366 18.6158 29.5768 18.2113 27.837C18.1789 27.6381 18.1465 27.4128 18.1142 27.1875C18.0656 26.8495 18.0171 26.5114 17.9685 26.2629V26.0972H29.6189V25.7658C29.6189 25.2687 29.538 24.3574 29.3761 23.7774C28.648 20.8778 26.7063 18.8894 24.0364 18.4752H22.2565L22.1756 18.558ZM23.7937 20.4635C24.6837 20.6292 25.4927 20.9606 26.059 21.5405C26.7063 22.2033 27.1917 23.1975 27.2726 24.1917V24.5231H22.661H17.9685C17.9685 24.3574 18.1303 23.6946 18.2922 23.3632C18.6158 22.6176 19.1821 21.8719 19.8294 21.4577C20.8811 20.7121 22.4183 20.3807 23.7128 20.5464L23.7937 20.4635ZM121.757 18.8891C121.713 18.7807 121.689 18.7234 121.689 18.7234V18.8891H121.757ZM124.521 25.5997C123.191 22.3747 122.043 19.5837 121.757 18.8891H122.822H123.954L126.139 24.2742C127.352 27.2567 128.404 29.7421 128.404 29.7421C128.415 29.7533 128.422 29.7676 128.431 29.7695C128.489 29.7815 128.652 29.2889 130.75 24.2742C131.023 23.6032 131.296 22.9229 131.548 22.2967C132.041 21.0673 132.45 20.0469 132.611 19.7175L133.016 18.8062H134.067H135.119C135.068 18.8062 134.325 20.5923 133.206 23.2832C132.571 24.8115 131.814 26.6317 130.993 28.5823L126.948 38.2754H125.896H124.844C124.874 38.2148 125.153 37.5549 125.506 36.7181C126.119 35.2685 126.956 33.2883 127.11 32.9732L127.352 32.3933L124.521 25.5997Z" fill="white"/>
</g>
<defs>
<clipPath id="clip0_5_580">
<rect width="177" height="49" fill="white" transform="translate(0.493164 0.877197)"/>
</clipPath>
</defs>
</svg>
