<svg width="222" height="53" viewBox="0 0 222 53" fill="none" xmlns="http://www.w3.org/2000/svg">
<g clip-path="url(#clip0_5_591)">
<path fill-rule="evenodd" clip-rule="evenodd" d="M31.5828 38.866C28.4167 42.0701 23.1318 44.159 17.3575 44.159C7.94612 44.159 0.46531 39.1118 0.143555 32.943V12.594V12.1934C0.143555 5.86441 7.78524 0.656982 17.4379 0.656982C23.7925 0.656982 29.5036 3.22057 32.319 6.98584H54.7616L51.9463 18.6825H40.6044L38.1912 25.1718L50.7397 19.9643L28.4581 52.1702L31.5828 38.866ZM22.4874 41.8823L23.7335 36.6905C21.8266 37.1622 19.5654 37.4224 17.4379 37.3493C10.4398 37.4294 4.56769 34.6254 1.75233 30.5396V32.5424C1.91321 37.9101 8.75051 42.5567 17.4379 42.5567C19.0882 42.4852 20.8665 42.2226 22.4874 41.8823ZM24.1879 34.7976L25.5212 29.2429C23.0518 30.1731 20.2778 30.6846 17.4379 30.5396C10.4398 30.6998 4.56769 27.9759 1.75233 24.1304V25.7327C1.91321 31.2606 8.75051 35.747 17.4379 35.747C19.6985 35.747 22.0212 35.3763 24.1879 34.7976ZM25.9971 27.2601L27.2962 21.8477C24.3887 23.1677 21.0169 24.0593 17.5184 24.1304C10.5202 23.9702 4.64813 21.2463 1.83277 17.3207V18.923C1.99364 24.531 8.83094 29.0174 17.5184 28.9373C20.6007 29.0104 23.5491 28.3499 25.9971 27.2601ZM30.308 6.98584H19.9316L17.1162 18.6825H28.0559L27.8457 19.5585C25.095 21.2803 21.4032 22.3849 17.5184 22.5282C8.83094 22.3679 1.99364 17.8014 1.83277 12.1133C1.83277 6.74566 8.83094 2.17915 17.5184 2.17915C22.6664 2.17915 27.4926 4.02171 30.308 6.98584ZM32.5605 43.7583L34.1693 35.6667L34.0888 35.7468L24.7579 39.7525L30.0669 17.1603H19.1272L21.1382 8.66824H52.7507L50.7397 17.1603H39.8L34.9737 28.4564L45.9134 23.6496L32.5605 43.7583ZM77.9279 14.9173C77.9279 16.1991 77.5257 17.2406 76.7213 17.9616C75.9169 18.6827 74.7908 19.0832 73.3429 19.0832C71.895 19.0832 70.6884 18.6025 69.884 17.7213C68.9992 16.84 68.597 15.5582 68.597 14.1161V11.7127C68.597 10.2707 69.0796 9.06896 69.884 8.10759C70.7688 7.22633 71.895 6.74564 73.3429 6.74564C74.7908 6.74564 75.9973 7.14622 76.8017 7.78713C77.6865 8.50816 78.0887 9.54964 78.0083 10.8315H75.6756C75.6756 10.0303 75.5147 9.46953 75.1125 9.06896C74.7103 8.66838 74.1472 8.50816 73.3429 8.50816C72.5385 8.50816 72.0558 8.82861 71.6536 9.38941C71.2514 9.95021 71.0101 10.6712 71.0101 11.6326V14.036C71.0101 14.9173 71.2514 15.7184 71.6536 16.2792C72.0558 16.84 72.6993 17.1605 73.4233 17.1605C74.1472 17.1605 74.7103 17.0003 75.0321 16.5997C75.3538 16.1991 75.5951 15.6383 75.5951 14.8372H77.9279V14.9173ZM91.2807 13.9559C91.2807 15.398 90.7981 16.6798 89.9133 17.6412C89.0284 18.6025 87.7414 19.0832 86.2935 19.0832C84.8456 19.0832 83.639 18.6025 82.6738 17.6412C81.7889 16.6798 81.3063 15.4781 81.3063 13.9559V11.7928C81.3063 10.3508 81.7889 9.14907 82.6738 8.10759C83.5586 7.14622 84.8456 6.66553 86.2935 6.66553C87.7414 6.66553 89.0284 7.14622 89.9133 8.10759C90.8785 9.06896 91.2807 10.2707 91.2807 11.7928V13.9559ZM88.8675 11.7928C88.8675 10.8315 88.6262 10.1104 88.1436 9.46953C87.661 8.90873 87.0174 8.58827 86.2131 8.58827C85.4087 8.58827 84.7652 8.90873 84.2825 9.46953C83.8803 10.0303 83.5586 10.8315 83.5586 11.7928V13.9559C83.5586 14.9173 83.7999 15.7184 84.2825 16.2792C84.6847 16.84 85.4087 17.1605 86.2131 17.1605C87.0174 17.1605 87.661 16.84 88.1436 16.2792C88.6262 15.7184 88.8675 14.9173 88.8675 13.9559V11.7928ZM97.5549 18.923H95.1418V6.90587H97.5549V18.923ZM111.551 18.923H109.138L104.312 10.8315V18.923H101.898V6.90587H104.312L109.138 14.9974V6.90587H111.551V18.923ZM123.778 8.7485H120.319V18.923H117.906V8.7485H114.527V6.90587H123.778V8.7485ZM133.833 13.6355H129.328V17.0804H134.637V18.923H126.915V6.90587H134.637V8.7485H129.328V11.7928H133.833V13.6355ZM140.59 17.0804H145.979V18.923H138.096V6.90587H140.509V17.0804H140.59ZM156.356 13.6355H151.851V17.0804H157.16V18.923H149.438V6.90587H157.16V8.7485H151.851V11.7928H156.356V13.6355ZM169.95 17.3207C169.548 17.8014 169.065 18.202 168.26 18.6025C167.537 19.0031 166.571 19.1633 165.365 19.1633C163.917 19.1633 162.71 18.6827 161.825 17.8014C160.941 16.9201 160.458 15.7184 160.458 14.2764V11.7127C160.458 10.2707 160.941 9.06896 161.825 8.1877C162.71 7.30644 163.917 6.82576 165.284 6.82576C166.732 6.82576 167.939 7.22633 168.663 7.86724C169.387 8.50816 169.869 9.46953 169.789 10.6712H167.537C167.537 10.0303 167.376 9.54964 166.973 9.14907C166.571 8.7485 166.089 8.58827 165.365 8.58827C164.641 8.58827 164.078 8.90873 163.595 9.46953C163.193 10.0303 162.952 10.7514 162.952 11.6326V14.1963C162.952 15.0775 163.193 15.8787 163.675 16.4395C164.158 17.0003 164.802 17.3207 165.526 17.3207C166.089 17.3207 166.571 17.3207 166.893 17.1605C167.215 17.0804 167.456 16.9201 167.697 16.7599V14.4366H165.365V12.7542H170.111V17.4809L169.95 17.3207ZM176.224 14.1161V18.923H173.811V6.82576H177.994C179.361 6.82576 180.487 7.14622 181.211 7.78713C182.016 8.42804 182.418 9.3093 182.418 10.4309C182.418 11.0718 182.257 11.5525 181.935 12.0332C181.613 12.4338 181.131 12.8343 180.487 13.1548C181.211 13.3951 181.694 13.7156 182.016 14.1963C182.337 14.6769 182.498 15.3179 182.498 16.0389V16.9201C182.498 16.9201 182.498 17.6412 182.659 17.9616C182.659 18.3622 182.9 18.6025 183.142 18.7628V18.923H180.648C180.407 18.7628 180.246 18.4423 180.165 18.0417C180.165 17.8415 180.145 17.6412 180.125 17.4409C180.105 17.2406 180.085 17.0403 180.085 16.84V15.9588C180.085 15.398 179.924 14.9173 179.602 14.5968C179.281 14.2764 178.798 14.1161 178.235 14.1161H176.224ZM177.994 12.2735H176.304V8.82861H178.074C178.718 8.82861 179.2 8.98884 179.522 9.3093C179.844 9.62976 180.005 10.0303 180.005 10.5911C180.005 11.1519 179.844 11.5525 179.522 11.873C179.2 12.1133 178.637 12.2735 177.994 12.2735ZM188.772 16.3593H192.658L193.438 18.923H196.012L191.99 6.90587H189.496L185.394 18.923H187.968L188.772 16.3593ZM189.496 14.4366H192.151L190.864 10.1905L189.496 14.4366ZM201.482 14.5167V18.8429H199.069V6.90587H203.734C205.101 6.90587 206.228 7.30644 207.032 7.94736C207.836 8.66839 208.239 9.62975 208.239 10.7514C208.239 11.873 207.836 12.8343 207.032 13.5554C206.228 14.2764 205.182 14.5968 203.734 14.5968H201.562L201.482 14.5167ZM201.482 12.6741H203.654C204.297 12.6741 204.86 12.5139 205.182 12.1133C205.504 11.7127 205.665 11.232 205.665 10.7514C205.665 10.1905 205.504 9.70987 205.182 9.3093C204.86 8.90873 204.297 8.7485 203.654 8.7485H201.482V12.6741ZM221.431 18.8429H219.017V13.8758H214.111V18.8429H211.697V6.82576H214.111V12.0332H219.017V6.82576H221.431V18.8429ZM71.4122 38.5511H72.9405V30.6198H75.6755V29.3379H68.6773V30.6198H71.4122V38.5511ZM81.5475 38.5511H83.0758L83.1563 38.471V33.9044C83.1563 32.222 82.2714 31.3408 80.5822 31.3408C80.0996 31.3408 79.6974 31.501 79.2952 31.6612C78.893 31.9016 78.4104 32.4624 78.4104 32.4624H78.3299V31.1806V28.697H76.882V38.471H78.3299V35.026C78.4104 34.1448 78.4908 33.584 78.8126 33.1834C79.1343 32.7828 79.5365 32.6226 80.18 32.6226C80.6627 32.6226 80.9844 32.7828 81.2257 33.0232C81.4671 33.2635 81.5475 33.6641 81.5475 34.2249V38.5511ZM85.6499 37.6698C86.2934 38.3107 87.0978 38.6312 88.2239 38.6312L88.1435 38.7113C88.4092 38.7113 88.6749 38.687 88.9137 38.6652C89.1087 38.6474 89.2859 38.6312 89.4305 38.6312C89.8327 38.5511 90.5566 38.2306 90.5566 38.2306V37.0289C90.4363 37.0768 90.3232 37.1319 90.213 37.1856C89.9548 37.3114 89.7124 37.4295 89.4305 37.4295C89.1087 37.5096 88.7065 37.5096 88.3044 37.5096C87.7413 37.5096 87.1782 37.3494 86.8565 36.9488C86.5347 36.6283 86.2934 36.0675 86.2934 35.4266H90.9588V34.6255C90.9588 33.584 90.7175 32.863 90.1544 32.3022C89.6718 31.7414 88.8674 31.4209 87.9826 31.4209C87.0173 31.4209 86.2129 31.7414 85.6499 32.3823C85.0868 33.0232 84.7651 33.9044 84.7651 35.026C84.7651 36.1476 85.0064 37.0289 85.6499 37.6698ZM86.8565 32.9431C87.0978 32.7027 87.5 32.5425 87.9826 32.5425C88.4652 32.5425 88.8674 32.6226 89.1087 32.9431C89.3501 33.1834 89.5109 33.6641 89.5109 34.2249H86.3738C86.4543 33.6641 86.6151 33.1834 86.8565 32.9431ZM97.7961 32.6226H99.4049V31.501H97.7157V31.1004C97.7157 30.6999 97.7961 30.4595 97.957 30.2192C98.1179 29.9789 98.3592 29.8987 98.681 29.8987C99.0027 29.8987 99.7267 30.059 99.7267 30.059L100.129 28.9374C99.6462 28.697 99.0832 28.697 98.6005 28.697C97.7961 28.697 97.2331 28.8573 96.8309 29.2578C96.4287 29.6584 96.2678 30.2993 96.2678 31.1004V31.501L95.1417 31.9016V32.6226H96.2678V38.471H97.7961V32.6226ZM105.357 37.5897L105.599 38.471L105.679 38.5511H106.886V31.5811H105.357V35.1062C105.277 35.9874 105.196 36.5482 104.875 36.9488C104.553 37.3494 104.151 37.5096 103.507 37.5096C103.024 37.5096 102.703 37.3494 102.461 37.109C102.22 36.7886 102.14 36.4681 102.14 35.9073V31.5811H100.611V36.1476C100.611 37.0289 100.853 37.6698 101.255 38.0704C101.737 38.471 102.301 38.7113 103.185 38.7113C103.668 38.7113 104.07 38.5511 104.472 38.3908C104.875 38.1505 105.357 37.5897 105.357 37.5897ZM112.597 37.1891C112.194 37.3494 111.471 37.3494 111.471 37.3494H111.39C111.149 37.3494 110.827 37.2692 110.747 37.109C110.505 36.9488 110.505 36.7084 110.505 36.3079V32.5425H112.516V31.4209H110.505V29.8987H109.62L109.138 31.3408L108.092 31.9016V32.5425H109.057V36.3079C109.057 37.7499 109.781 38.471 111.149 38.471H111.953C112.194 38.471 112.597 38.3107 112.597 38.3107V37.1891ZM118.63 37.5897L118.871 38.471L118.951 38.5511H120.158V31.5811H118.63V35.1062C118.549 35.9874 118.469 36.5482 118.147 36.9488C117.825 37.3494 117.423 37.5096 116.78 37.5096C116.297 37.5096 115.975 37.3494 115.734 37.109C115.492 36.7886 115.412 36.4681 115.412 35.9073V31.5811H113.884V36.1476C113.884 37.0289 114.125 37.6698 114.527 38.0704C115.01 38.471 115.573 38.7113 116.458 38.7113C116.94 38.7113 117.343 38.5511 117.745 38.3908C118.147 38.1505 118.63 37.5897 118.63 37.5897ZM126.432 31.3408H125.708L125.628 31.2607C125.145 31.2607 124.743 31.4209 124.421 31.6612C124.099 31.9016 123.778 32.222 123.536 32.6226L123.375 31.4209H122.169V38.3908H123.617V34.7857C123.617 34.1448 123.778 33.6641 124.18 33.2635C124.582 32.863 125.065 32.7027 125.628 32.7027H126.271L126.432 31.3408ZM127.961 37.5897C128.604 38.2306 129.408 38.5511 130.535 38.5511L130.454 38.6312C130.706 38.6312 130.937 38.6093 131.157 38.5884C131.357 38.5693 131.549 38.5511 131.741 38.5511C132.143 38.471 132.867 38.1505 132.867 38.1505V36.9488C132.747 36.9967 132.634 37.0518 132.524 37.1055C132.265 37.2313 132.023 37.3494 131.741 37.3494C131.419 37.4295 131.017 37.4295 130.615 37.4295C130.052 37.4295 129.489 37.2692 129.167 36.8687C128.845 36.5482 128.604 35.9874 128.604 35.3465H133.269V34.5454C133.269 33.5039 133.028 32.7828 132.465 32.222C131.982 31.6612 131.178 31.3408 130.293 31.3408C129.328 31.3408 128.524 31.6612 127.961 32.3022C127.397 32.9431 127.076 33.8243 127.076 34.9459C127.076 36.0675 127.317 36.9488 127.961 37.5897ZM129.167 32.863C129.408 32.6226 129.811 32.4624 130.293 32.4624C130.776 32.4624 131.098 32.5425 131.419 32.863C131.661 33.1033 131.822 33.584 131.822 34.1448H128.684C128.765 33.584 128.845 33.1834 129.167 32.863ZM143.646 37.5897C144.209 36.9488 144.531 36.0675 144.531 34.9459L144.611 34.8658C144.611 33.7442 144.29 32.863 143.727 32.222C143.083 31.5811 142.279 31.2607 141.313 31.2607C140.187 31.2607 139.383 31.5811 138.82 32.222C138.257 32.863 137.935 33.7442 137.935 34.8658C137.935 35.5868 138.096 36.2278 138.337 36.7886C138.578 37.3494 138.9 37.7499 139.463 38.0704C140.026 38.3908 140.589 38.5511 141.233 38.5511C142.279 38.5511 143.083 38.2306 143.646 37.5897ZM141.233 37.3494C140.026 37.3494 139.463 36.5482 139.463 34.9459C139.463 34.1448 139.544 33.584 139.865 33.1834C140.187 32.7828 140.589 32.5425 141.233 32.5425C142.44 32.5425 143.003 33.3436 143.003 34.9459C143.003 36.5482 142.44 37.3494 141.233 37.3494ZM148.07 32.6226H149.679V31.501H147.99V31.1004C147.99 30.6999 148.07 30.3794 148.231 30.2192C148.392 29.9789 148.633 29.8987 148.955 29.8987C149.277 29.8987 150.001 30.059 150.001 30.059L150.403 28.9374C149.92 28.697 149.357 28.697 148.875 28.697C148.07 28.697 147.507 28.8573 147.105 29.2578C146.703 29.6584 146.542 30.2993 146.542 31.1004V31.501L145.416 31.9016V32.6226H146.542V38.471H148.07V32.6226ZM158.688 38.471H160.216L160.136 38.3908H160.216V34.7056C160.216 33.9044 160.377 33.4238 160.619 33.0232C160.94 32.6226 161.343 32.4624 161.906 32.4624C162.388 32.4624 162.63 32.6226 162.871 32.863C163.112 33.1834 163.193 33.5039 163.193 34.0647V38.3908H164.641V33.8243C164.641 32.9431 164.48 32.3022 164.078 31.9016C163.675 31.501 163.112 31.2607 162.227 31.2607C161.745 31.2607 161.343 31.4209 160.94 31.5811C160.538 31.7414 160.056 32.3823 160.056 32.3823H159.975C159.573 31.6612 158.849 31.2607 157.803 31.2607C157.401 31.2607 156.999 31.3408 156.597 31.501C156.195 31.7414 155.712 32.3022 155.712 32.3022L155.471 31.4209H154.264V38.3908H155.712V34.9459C155.712 34.0647 155.873 33.5039 156.114 33.1033C156.436 32.7027 156.838 32.5425 157.401 32.5425C157.884 32.5425 158.206 32.7027 158.366 32.9431C158.608 33.2635 158.688 33.584 158.688 34.1448V38.471ZM172.041 37.5897C172.604 36.9488 172.926 36.0675 172.926 34.9459L173.006 34.8658C173.006 33.7442 172.684 32.863 172.121 32.222C171.478 31.5811 170.674 31.2607 169.708 31.2607C168.582 31.2607 167.778 31.5811 167.215 32.222C166.652 32.863 166.33 33.7442 166.33 34.8658C166.33 35.5868 166.491 36.2278 166.732 36.7886C166.973 37.3494 167.376 37.7499 167.858 38.0704C168.421 38.3908 168.984 38.5511 169.628 38.5511C170.674 38.5511 171.478 38.2306 172.041 37.5897ZM169.628 37.3494C168.421 37.3494 167.858 36.5482 167.858 34.9459C167.858 34.1448 167.939 33.584 168.26 33.1834C168.582 32.7828 168.984 32.5425 169.628 32.5425C170.834 32.5425 171.397 33.3436 171.397 34.9459C171.397 36.5482 170.834 37.3494 169.628 37.3494ZM179.28 38.471H180.809V38.3107V33.8243C180.809 32.1419 180.004 31.2607 178.315 31.2607C177.833 31.2607 177.43 31.3408 177.028 31.501C176.626 31.7414 176.143 32.3022 176.143 32.3022L175.902 31.4209H174.695V38.3908H176.143V34.9459C176.143 34.0647 176.304 33.5039 176.546 33.1033C176.787 32.7027 177.27 32.5425 177.913 32.5425C178.396 32.5425 178.717 32.7027 178.959 32.9431C179.2 33.1834 179.28 33.584 179.28 34.1448V38.471ZM183.383 37.5897C184.026 38.2306 184.831 38.5511 185.957 38.5511L185.876 38.6312C186.129 38.6312 186.359 38.6093 186.579 38.5884C186.78 38.5693 186.972 38.5511 187.163 38.5511C187.566 38.471 188.29 38.1505 188.29 38.1505V36.9488C188.176 36.994 188.063 37.0456 187.951 37.0964C187.667 37.2255 187.394 37.3494 187.163 37.3494C186.842 37.4295 186.44 37.4295 186.037 37.4295C185.474 37.4295 184.911 37.2692 184.589 36.8687C184.268 36.5482 184.026 35.9874 184.026 35.3465H188.692V34.5454C188.692 33.5039 188.451 32.7828 187.887 32.222C187.405 31.6612 186.6 31.3408 185.716 31.3408C184.75 31.3408 183.946 31.6612 183.383 32.3022C182.82 32.9431 182.498 33.8243 182.498 34.9459C182.498 36.0675 182.739 36.9488 183.383 37.5897ZM184.509 32.863C184.75 32.6226 185.153 32.4624 185.635 32.4624C186.118 32.4624 186.52 32.5425 186.761 32.863C187.003 33.1033 187.163 33.584 187.163 34.1448H184.026C184.107 33.584 184.187 33.1834 184.509 32.863ZM189.033 31.501H189.014L188.933 31.2607L189.033 31.501ZM189.033 31.501L191.829 38.2306L191.588 38.8715C191.266 39.7528 190.783 40.1534 190.059 40.1534H189.255V41.3551C189.577 41.4352 189.898 41.4352 190.22 41.4352C191.507 41.4352 192.392 40.7142 192.955 39.2721L195.931 31.4209H194.323C194.088 32.1016 193.878 32.7115 193.692 33.2494C193.112 34.9273 192.775 35.905 192.714 36.1476C192.553 36.5482 192.472 37.0289 192.472 37.0289C192.472 36.5482 192.312 35.9874 192.07 35.4266L190.622 31.501H189.033Z" fill="white"/>
</g>
<defs>
<clipPath id="clip0_5_591">
<rect width="222" height="52" fill="white" transform="translate(-0.00683594 0.377197)"/>
</clipPath>
</defs>
</svg>
