<svg width="259" height="53" viewBox="0 0 259 53" fill="none" xmlns="http://www.w3.org/2000/svg">
<g clip-path="url(#clip0_5_593)">
<path fill-rule="evenodd" clip-rule="evenodd" d="M29.8239 19.172L28.9921 18.8688L7.14733 10.9549L17.405 7.11851L17.8637 7.28176L18.7228 7.59661L29.8433 11.6196L38.8766 14.8769L39.7202 15.1801L40.2487 15.3705L30.6479 18.8688L29.8239 19.172ZM24.1723 10.8733L21.9722 9.95986L19.3369 10.8927L21.5369 11.81L24.1723 10.8733ZM22.2288 13.4893L20.4175 12.7351L18.2563 13.5048L20.0598 14.2666L22.2288 13.4893ZM26.8931 12.7118L25.0818 11.9578L22.9129 12.7351L24.7242 13.4893L26.8931 12.7118ZM19.7683 8.98814L17.922 8.23019L15.7842 8.9998L17.6266 9.76552L19.7683 8.98814ZM15.7803 10.1037L12.0139 11.4291L15.1545 12.7351L18.921 11.4058L15.7803 10.1037ZM11.6368 5.82804L13.7202 5.12838L15.4732 5.84359L13.386 6.54713L11.6368 5.82804ZM7.5749 6.83088L4.76073 5.67645L8.1191 4.55312L10.9333 5.70366L7.5749 6.83088ZM4.60137 6.8231L7.05793 7.82983L4.12716 8.81323L1.6706 7.80651L4.60137 6.8231ZM2.8639 3.70964L4.90455 4.54534L2.47132 5.36161L0.430664 4.52591L2.8639 3.70964ZM8.09572 2.18984L9.44064 2.74179L7.83921 3.27819L6.49821 2.73013L8.09572 2.18984ZM3.03492 0.98877L4.37593 1.53683L2.77838 2.07712L1.43349 1.52517L3.03492 0.98877ZM152.138 44.1031C146.094 44.1031 142.938 40.0257 142.938 34.5178V31.4082C142.938 25.9005 146.094 21.8191 152.138 21.8191C158.183 21.8191 161.35 25.8926 161.35 31.4005V34.5101C161.35 40.0257 158.183 44.1031 152.138 44.1031ZM156.259 31.4005C156.259 28.2404 154.836 26.1998 152.138 26.1998C149.441 26.1998 148.018 28.2404 148.018 31.4005V34.5101C148.018 37.6663 149.444 39.7069 152.138 39.7069C154.832 39.7069 156.259 37.6663 156.259 34.5101V31.4005ZM174.469 44.1031C173.233 44.0933 171.998 44.0038 170.772 43.8349V50.6526C170.772 50.8588 170.69 51.0566 170.545 51.2023C170.399 51.3481 170.201 51.43 169.995 51.43H166.454C166.248 51.43 166.05 51.3481 165.905 51.2023C165.758 51.0566 165.677 50.8588 165.677 50.6526V23.852C165.677 23.2767 165.832 23.0436 166.718 22.8142C169.249 22.1723 171.847 21.8356 174.457 21.8113C180.654 21.8113 183.658 25.469 183.658 31.4743V34.4401C183.669 40.4454 180.665 44.1031 174.469 44.1031ZM178.585 31.4743C178.585 28.3182 177.776 25.9704 174.469 25.9704C173.232 25.9588 171.995 26.0485 170.772 26.2386V39.6758C171.998 39.8383 173.233 39.9292 174.469 39.9479C177.776 39.9479 178.585 37.6158 178.585 34.4401V31.4743ZM204.885 34.7122H192.33V34.8249C192.33 37.0599 193.255 39.7147 196.951 39.7147C199.762 39.7147 202.417 39.4854 204.033 39.326H204.15C204.539 39.326 204.842 39.5203 204.842 39.9052V42.4472C204.842 43.0614 204.729 43.3296 204.033 43.4462C201.576 43.9368 199.072 44.1557 196.567 44.0992C192.715 44.0992 187.238 42.0236 187.238 34.4362V31.5909C187.238 25.5856 190.589 21.8113 196.481 21.8113C202.374 21.8113 205.662 25.8654 205.662 31.5909V33.7482C205.662 34.3623 205.421 34.7122 204.885 34.7122ZM200.531 30.9379C200.531 27.9334 198.875 26.1998 196.489 26.1998C194.102 26.1998 192.368 27.8944 192.368 30.9379V31.0895H200.531V30.9379ZM226.17 43.1041C223.639 43.7429 221.041 44.0783 218.431 44.1031C212.211 44.1031 209.23 40.4454 209.23 34.4401V31.4743C209.23 25.469 212.231 21.8113 218.431 21.8113C219.668 21.8228 220.902 21.9137 222.127 22.0834V15.2657C222.127 15.0595 222.209 14.8618 222.355 14.716C222.501 14.5702 222.698 14.4883 222.904 14.4883H226.446C226.652 14.4883 226.85 14.5702 226.995 14.716C227.141 14.8618 227.223 15.0595 227.223 15.2657V42.0857C227.211 42.6416 227.04 42.8748 226.17 43.1041ZM222.127 26.2541C220.901 26.0948 219.667 26.0053 218.431 25.9859C215.119 25.9859 214.31 28.3182 214.31 31.4899V34.4556C214.31 37.6119 215.119 39.9635 218.431 39.9635C219.668 39.976 220.905 39.885 222.127 39.6914V26.2541ZM236.757 19.1954H233.023C232.813 19.1956 232.612 19.1147 232.462 18.9697C232.31 18.8248 232.222 18.6271 232.214 18.418V15.0364C232.221 14.827 232.31 14.6287 232.46 14.4836C232.611 14.3385 232.813 14.2579 233.023 14.259H236.757C236.964 14.259 237.161 14.3409 237.308 14.4867C237.453 14.6324 237.535 14.8302 237.535 15.0364V18.4258C237.533 18.6306 237.45 18.8264 237.304 18.9705C237.159 19.1146 236.962 19.1954 236.757 19.1954ZM236.641 43.796H233.096C232.887 43.7889 232.689 43.7005 232.543 43.5496C232.398 43.3986 232.318 43.197 232.319 42.9875V22.853C232.319 22.6469 232.4 22.4491 232.547 22.3034C232.692 22.1575 232.89 22.0757 233.096 22.0757H236.641C236.847 22.0757 237.045 22.1575 237.19 22.3034C237.337 22.4491 237.418 22.6469 237.418 22.853V42.9875C237.419 43.197 237.339 43.3986 237.194 43.5496C237.048 43.7005 236.851 43.7889 236.641 43.796ZM257.852 43.796H254.579C254.374 43.796 254.175 43.7142 254.03 43.5683C253.884 43.4226 253.802 43.2248 253.802 43.0186V42.4045C252.18 43.4621 250.296 44.0476 248.36 44.0953C245.166 44.0953 241.702 42.8671 241.702 37.6663V37.5264C241.702 33.1341 244.395 30.8641 251.097 30.8641H253.522V29.1655C253.522 26.6623 252.406 26.0559 250.132 26.0559C248.038 26.0492 245.944 26.1517 243.859 26.363H243.665C243.276 26.363 242.973 26.2464 242.973 25.7099V23.2379C242.973 22.8142 243.202 22.5421 243.704 22.4294C245.822 22.0134 247.975 21.8064 250.132 21.8113C255.601 21.8113 258.602 24.2368 258.602 29.1655V43.0264C258.601 43.2266 258.521 43.4184 258.382 43.5617C258.242 43.7051 258.052 43.789 257.852 43.796ZM253.541 34.2496H251.116C247.618 34.2496 246.84 35.3652 246.84 37.5225V37.674C246.84 39.5631 247.688 40.0606 249.612 40.0606C250.99 40.0294 252.34 39.6596 253.541 38.984V34.2496ZM31.4952 19.7707L30.6477 20.0777V51.8381L40.9171 46.1165V27.4008L52.2554 23.2845L53.2116 22.9347L53.2816 11.884L31.4952 19.7707ZM40.5518 14.2862L41.3758 14.5855L41.92 14.7837L52.4925 10.955L42.2348 7.11475L40.9171 7.59673L31.5146 11.0134L39.72 13.9869L40.5518 14.2862ZM76.4905 43.8348C75.6276 43.9973 74.7525 44.087 73.8746 44.103C69.5251 44.103 67.7526 43.143 67.7526 37.985V25.8926L64.1338 25.3562C63.9319 25.3433 63.7415 25.2573 63.5984 25.1142C63.4553 24.9711 63.3693 24.7807 63.3565 24.5788V22.853C63.3565 22.6468 63.4384 22.4491 63.5841 22.3033C63.73 22.1575 63.9277 22.0756 64.1338 22.0756H67.7526V18.9233C67.7646 18.721 67.8504 18.5302 67.9937 18.3869C68.137 18.2437 68.3277 18.1579 68.53 18.1459L72.1099 17.5318H72.2653C72.3449 17.5226 72.4255 17.5309 72.5015 17.5561C72.5775 17.5812 72.6472 17.6226 72.7056 17.6773C72.764 17.732 72.8098 17.7988 72.8399 17.873C72.8698 17.9472 72.8834 18.027 72.8795 18.107V22.0834H76.3467C76.5529 22.0834 76.7506 22.1653 76.8964 22.3111C77.0422 22.4569 77.1241 22.6546 77.1241 22.8607V25.1307C77.1241 25.3369 77.0422 25.5346 76.8964 25.6805C76.7506 25.8262 76.5529 25.9082 76.3467 25.9082H72.8795V37.985C72.8795 39.909 72.9961 40.1383 74.3837 40.1383H76.4245C76.9259 40.1383 77.2329 40.3327 77.2329 40.7175V43.143C77.2251 43.5278 77.0036 43.7454 76.4905 43.8348ZM97.6671 34.7121H85.116V34.8248C85.116 37.0599 86.0365 39.7146 89.7374 39.7146C92.5475 39.7146 95.2023 39.4853 96.8193 39.3259H96.9358C97.325 39.3259 97.6274 39.5203 97.6274 39.9051V42.4472C97.6274 43.0613 97.5109 43.3296 96.8193 43.4461C94.3603 43.9368 91.8551 44.1557 89.3482 44.0991C85.5002 44.0991 80.0199 42.0235 80.0199 34.4361V31.5909C80.0199 25.5855 83.3701 21.8113 89.2631 21.8113C95.156 21.8113 98.4364 25.8654 98.4364 31.5909V33.7482C98.4364 34.3623 98.2066 34.7121 97.6671 34.7121ZM93.3292 30.9379C93.3292 27.9333 91.6733 26.1997 89.2862 26.1997C86.8999 26.1997 85.1664 27.8944 85.1664 30.9379V31.0895H93.3292V30.9379ZM115.761 43.6055C114.13 43.9657 112.462 44.1327 110.793 44.103C105.787 44.103 102.012 41.0246 102.012 34.7471V31.1672C102.012 24.8937 105.787 21.8113 110.793 21.8113C112.463 21.7823 114.13 21.9506 115.761 22.3127C116.413 22.4682 116.569 22.7014 116.569 23.3116V25.8149C116.569 26.2036 116.261 26.394 115.877 26.394H115.761C114.114 26.1794 112.453 26.0896 110.793 26.1258C108.981 26.1258 107.096 27.1636 107.096 31.1789V34.7588C107.096 38.7662 108.981 39.8118 110.793 39.8118C112.453 39.8459 114.113 39.7563 115.761 39.5437H115.877C116.265 39.5437 116.569 39.7341 116.569 40.1189V42.6221C116.569 43.2206 116.413 43.45 115.761 43.6055ZM137.819 43.796H134.278C134.068 43.7889 133.87 43.7005 133.725 43.5495C133.58 43.3985 133.499 43.1969 133.501 42.9875V30.3198C133.501 26.9732 132.921 26.1258 130.34 26.1258C129.035 26.1258 127.491 26.5884 125.874 27.4318V42.9797C125.875 43.1891 125.795 43.3908 125.649 43.5417C125.505 43.6927 125.307 43.7811 125.097 43.7882H121.556C121.346 43.7811 121.148 43.6927 121.003 43.5417C120.858 43.3908 120.777 43.1891 120.779 42.9797V15.2656C120.779 15.0595 120.86 14.8618 121.006 14.7159C121.152 14.5702 121.349 14.4883 121.556 14.4883H125.097C125.303 14.4883 125.501 14.5702 125.646 14.7159C125.792 14.8618 125.874 15.0595 125.874 15.2656V23.2378C127.34 22.3516 128.956 21.8113 131.704 21.8113C137.018 21.8113 138.596 25.5855 138.596 30.3198V42.9875C138.597 43.1969 138.517 43.3985 138.372 43.5495C138.226 43.7005 138.028 43.7889 137.819 43.796ZM28.1469 19.7707L28.9942 20.0777V51.8342L18.7249 46.1165V16.3618L28.1469 19.7707ZM17.0652 15.7631L6.35656 11.8838L6.42653 22.9344L7.38272 23.2843L17.0652 26.802V15.7631Z" fill="white"/>
</g>
<defs>
<clipPath id="clip0_5_593">
<rect width="259" height="52" fill="white" transform="translate(-0.00683594 0.377197)"/>
</clipPath>
</defs>
</svg>
