<svg width="196" height="39" viewBox="0 0 196 39" fill="none" xmlns="http://www.w3.org/2000/svg">
<g clip-path="url(#clip0_5_595)">
<path fill-rule="evenodd" clip-rule="evenodd" d="M32.6388 1.02311C35.0909 1.19999 37.0569 3.18991 37.2336 5.64415C37.4324 8.58481 35.135 11.017 32.2633 10.9948C30.8716 10.9948 29.6124 10.4421 28.7067 9.51346C27.9335 8.71749 26.8953 8.25316 25.7908 8.25316H25.4373C24.3328 8.25316 23.2946 8.71749 22.5214 9.51346C21.6157 10.42 20.3566 10.9948 18.9649 10.9948C17.5732 10.9948 16.314 10.4421 15.4083 9.51346C14.6351 8.71749 13.5969 8.25316 12.4924 8.25316H12.0948C10.9902 8.25316 9.95196 8.71749 9.17879 9.49135L9.13461 9.53558L9.09044 9.57975C8.31727 10.3536 7.85338 11.3928 7.85338 12.4983V12.8963C7.85338 14.0018 8.31727 15.041 9.11253 15.8149C10.0183 16.7214 10.5926 17.9817 10.5926 19.3746C10.5926 20.7676 10.0403 22.0279 9.11253 22.9344C8.31727 23.7083 7.85338 24.7474 7.85338 25.8529V26.2951C7.85338 27.4007 8.31727 28.4398 9.11253 29.2137L9.1567 29.2579C9.92987 30.0539 10.9902 30.474 12.0727 30.474H12.5366C13.619 30.474 14.6572 30.0097 15.4304 29.2358C16.3361 28.3293 17.5952 27.7765 18.9649 27.7765C21.8587 27.7765 24.1561 30.2087 23.9573 33.1493C23.7805 35.6256 21.7924 37.6156 19.3404 37.7925C17.772 37.903 16.3361 37.306 15.342 36.2669C14.591 35.4709 13.5748 35.0066 12.4924 35.0066H12.0727C10.9902 35.0066 9.97405 35.493 9.22297 36.2669C8.27309 37.2618 6.92559 37.8588 5.42344 37.8146C2.83886 37.7261 0.718192 35.6257 0.60774 33.0166C0.541469 31.5353 1.13791 30.1866 2.10988 29.2358C2.88304 28.4841 3.34694 27.467 3.34694 26.3836V25.875C3.34694 24.7695 2.88304 23.7304 2.08779 22.9565C1.18209 22.05 0.60774 20.7897 0.60774 19.3967C0.60774 18.0038 1.15999 16.7435 2.08779 15.837C2.88304 15.0631 3.34694 14.0239 3.34694 12.9184V12.5426C3.34694 11.4592 2.92722 10.3978 2.13197 9.64609L2.0657 9.57975C0.0333908 7.54564 0.121752 4.18487 2.30869 2.26128C4.1201 0.64723 6.88142 0.60301 8.75907 2.12862C8.91369 2.26128 9.06835 2.41606 9.22297 2.57083C9.97405 3.34468 11.0124 3.76478 12.0948 3.76478H12.4703C13.5748 3.76478 14.6131 3.30046 15.3862 2.50449C16.2919 1.59798 17.5511 1.02311 18.9428 1.02311C20.3345 1.02311 21.5936 1.57586 22.4993 2.50449C23.2725 3.30046 24.3108 3.76478 25.4152 3.76478H25.8129C26.8953 3.76478 27.9114 3.30046 28.6625 2.52661C29.6566 1.50953 31.0704 0.912554 32.6388 1.02311ZM94.1782 7.51337C95.3599 8.69629 95.3599 10.6142 94.1782 11.7971C92.9959 12.98 91.08 12.98 89.8982 11.7971C88.7164 10.6142 88.7164 8.69629 89.8982 7.51337C91.08 6.33044 92.9959 6.33044 94.1782 7.51337ZM55.2156 27.1345C51.615 27.1345 49.3838 23.9064 49.3838 19.4401C49.3838 15.0181 51.2615 11.7236 55.1935 11.7236C57.7779 11.7236 59.4789 13.3819 59.7885 15.5708H65.797C65.4874 12.8513 64.2726 10.4634 62.1521 8.87143C60.4289 7.54479 58.0432 6.72676 55.2156 6.72676C47.97 6.72676 43.2647 12.2101 43.2647 19.4401C43.2647 26.7144 48.1246 32.043 55.26 32.043C58.6836 32.043 61.1798 31.0923 63.0356 29.2792C64.6922 27.6873 65.7971 25.4762 65.9514 23.0662H59.9428C59.6781 25.432 57.9105 27.1345 55.2156 27.1345ZM77.0406 13.6476C71.4738 13.6476 67.7405 17.6275 67.7405 22.8676C67.7405 28.1077 71.4738 32.0876 77.0406 32.0876C82.6512 32.0876 86.3184 28.1077 86.3184 22.8676C86.3184 17.6275 82.6512 13.6476 77.0406 13.6476ZM77.0184 28.1298C74.6104 28.1298 73.3512 26.0294 73.3512 22.8676C73.3512 19.7058 74.6104 17.5612 77.0184 17.5612C79.4263 17.5612 80.7294 19.7058 80.7294 22.8676C80.7077 26.0294 79.4263 28.1298 77.0184 28.1298ZM87.2238 18.026H89.543V31.5353H95.0659V14.1124H87.2238V18.026ZM103.284 16.5001C104.565 14.6208 106.244 13.6037 108.651 13.6037C112.451 13.6037 114.704 16.3233 114.704 20.1926V31.513H109.16V21.3202C109.16 19.485 108.254 18.2248 106.443 18.2248C104.609 18.2248 103.394 19.7504 103.394 21.895V31.513H97.8497V14.1123H103.173V16.5001H103.284ZM127.694 7.21406H117.334V31.5133H127.319C130.367 31.5133 132.819 30.7394 134.719 29.3022C137.436 27.2239 138.938 23.7968 138.938 19.5074C138.938 12.0783 134.409 7.21406 127.694 7.21406ZM126.877 26.4721H123.342V12.2552H126.943C130.721 12.2552 132.863 15.1074 132.863 19.5295C132.841 23.9736 130.809 26.4721 126.877 26.4721ZM149.408 13.7365C151.882 13.7365 153.848 14.5546 155.35 15.9033C157.427 17.8048 158.443 20.8118 158.421 24.3715H145.917C146.271 26.7152 147.552 28.1745 149.828 28.1745C151.286 28.1745 152.236 27.5333 152.721 26.4499H158.112C157.736 28.0197 156.72 29.5012 155.196 30.5624C153.737 31.5795 151.97 32.1544 149.762 32.1544C144.018 32.1544 140.483 28.1745 140.483 22.9123C140.483 17.7163 144.106 13.7365 149.408 13.7365ZM149.496 17.65C147.398 17.65 146.315 18.9766 145.94 21.055H152.788C152.589 18.9766 151.286 17.65 149.496 17.65ZM168.58 20.5037C166.696 20.182 165.158 19.9193 165.158 18.8436C165.158 17.7602 166.218 17.2517 167.565 17.2517C169.09 17.2517 170.15 17.7381 170.349 19.2858H175.452C175.187 15.8587 172.536 13.7141 167.61 13.7141C163.501 13.7141 160.099 15.6155 160.099 19.2858C160.099 23.3762 163.324 24.1722 166.35 24.6807C166.574 24.719 166.795 24.7552 167.012 24.7909C169.054 25.1256 170.768 25.4066 170.768 26.8254C170.768 27.953 169.708 28.55 168.051 28.55C166.218 28.55 165.069 27.7098 164.848 25.9631H159.613C159.79 29.8103 162.971 32.154 168.074 32.154C172.624 32.154 175.982 30.1862 175.982 26.3832C176.004 21.9391 172.403 21.1431 169.333 20.6346C169.078 20.5886 168.826 20.5457 168.58 20.5037ZM195.135 14.1125L189.016 20.6571L195.842 31.5353H189.436L185.261 24.4158L183.582 26.1846V31.5353H178.126V7.21406H183.582V19.9938L188.751 14.1125H195.135ZM18.9212 21.0553C19.8484 21.0553 20.6 20.3029 20.6 19.3749C20.6 18.4468 19.8484 17.6945 18.9212 17.6945C17.994 17.6945 17.2423 18.4468 17.2423 19.3749C17.2423 20.3029 17.994 21.0553 18.9212 21.0553ZM33.9867 19.3749C33.9867 20.3029 33.2351 21.0553 32.3079 21.0553C31.3806 21.0553 30.629 20.3029 30.629 19.3749C30.629 18.4468 31.3806 17.6945 32.3079 17.6945C33.2351 17.6945 33.9867 18.4468 33.9867 19.3749ZM32.3079 34.4762C33.2351 34.4762 33.9867 33.7238 33.9867 32.7958C33.9867 31.8678 33.2351 31.1154 32.3079 31.1154C31.3806 31.1154 30.629 31.8678 30.629 32.7958C30.629 33.7238 31.3806 34.4762 32.3079 34.4762Z" fill="white"/>
</g>
<defs>
<clipPath id="clip0_5_595">
<rect width="196" height="38" fill="white" transform="translate(-0.00683594 0.377197)"/>
</clipPath>
</defs>
</svg>
